<mxfile host="65bd71144e">
    <diagram id="fTqJgbymd3yTabrrAMcY" name="v4.3">
        <mxGraphModel dx="781" dy="355" grid="1" gridSize="10" guides="1" tooltips="1" connect="1" arrows="1" fold="1" page="1" pageScale="1" pageWidth="850" pageHeight="1100" math="0" shadow="0">
            <root>
                <mxCell id="0"/>
                <mxCell id="1" parent="0"/>
                <mxCell id="N-algC2P6v_rmR5xic9A-1" value="" style="edgeStyle=orthogonalEdgeStyle;rounded=0;html=1;startArrow=ERone;startFill=0;endArrow=ERzeroToMany;endFill=0;fontSize=9;" edge="1" parent="1" source="N-algC2P6v_rmR5xic9A-5" target="N-algC2P6v_rmR5xic9A-8">
                    <mxGeometry relative="1" as="geometry"/>
                </mxCell>
                <mxCell id="N-algC2P6v_rmR5xic9A-2" style="edgeStyle=orthogonalEdgeStyle;rounded=0;html=1;entryX=0.75;entryY=1;entryDx=0;entryDy=0;startArrow=ERone;startFill=0;endArrow=ERoneToMany;endFill=0;exitX=0;exitY=0.5;exitDx=0;exitDy=0;fontSize=9;" edge="1" parent="1" source="N-algC2P6v_rmR5xic9A-5" target="N-algC2P6v_rmR5xic9A-14">
                    <mxGeometry relative="1" as="geometry">
                        <Array as="points">
                            <mxPoint x="140" y="180.02"/>
                            <mxPoint x="140" y="150.02"/>
                            <mxPoint x="100" y="150.02"/>
                        </Array>
                    </mxGeometry>
                </mxCell>
                <mxCell id="N-algC2P6v_rmR5xic9A-3" value="" style="edgeStyle=orthogonalEdgeStyle;rounded=0;html=1;startArrow=ERone;startFill=0;endArrow=ERzeroToMany;endFill=0;fontSize=9;" edge="1" parent="1" source="N-algC2P6v_rmR5xic9A-5" target="N-algC2P6v_rmR5xic9A-15">
                    <mxGeometry relative="1" as="geometry"/>
                </mxCell>
                <mxCell id="N-algC2P6v_rmR5xic9A-4" style="edgeStyle=orthogonalEdgeStyle;rounded=0;html=1;exitX=0.75;exitY=1;exitDx=0;exitDy=0;entryX=0.5;entryY=0;entryDx=0;entryDy=0;startArrow=ERone;startFill=0;endArrow=ERzeroToMany;endFill=0;fontSize=9;" edge="1" parent="1" source="N-algC2P6v_rmR5xic9A-5" target="N-algC2P6v_rmR5xic9A-17">
                    <mxGeometry relative="1" as="geometry"/>
                </mxCell>
                <mxCell id="N-algC2P6v_rmR5xic9A-5" value="PACIENTE" style="rounded=0;whiteSpace=wrap;html=1;fontSize=9;" vertex="1" parent="1">
                    <mxGeometry x="160" y="160.02" width="80" height="40" as="geometry"/>
                </mxCell>
                <mxCell id="N-algC2P6v_rmR5xic9A-6" value="" style="edgeStyle=orthogonalEdgeStyle;html=1;endArrow=ERzeroToMany;endFill=0;startArrow=ERone;startFill=0;fontSize=9;" edge="1" parent="1" source="N-algC2P6v_rmR5xic9A-7" target="N-algC2P6v_rmR5xic9A-5">
                    <mxGeometry relative="1" as="geometry"/>
                </mxCell>
                <mxCell id="N-algC2P6v_rmR5xic9A-7" value="CONVENIO" style="rounded=0;whiteSpace=wrap;html=1;fontSize=9;" vertex="1" parent="1">
                    <mxGeometry x="160" y="80.02" width="80" height="40" as="geometry"/>
                </mxCell>
                <mxCell id="N-algC2P6v_rmR5xic9A-8" value="AGENDAMENTO" style="rounded=0;whiteSpace=wrap;html=1;fontSize=9;" vertex="1" parent="1">
                    <mxGeometry x="280" y="160.02" width="80" height="40" as="geometry"/>
                </mxCell>
                <mxCell id="N-algC2P6v_rmR5xic9A-9" value="PAGAMENTO" style="rounded=0;whiteSpace=wrap;html=1;fontSize=9;" vertex="1" parent="1">
                    <mxGeometry x="40" y="240.02000000000004" width="80" height="40" as="geometry"/>
                </mxCell>
                <mxCell id="N-algC2P6v_rmR5xic9A-10" value="" style="edgeStyle=orthogonalEdgeStyle;rounded=0;html=1;startArrow=ERone;startFill=0;endArrow=ERoneToMany;endFill=0;fontSize=9;" edge="1" parent="1" source="N-algC2P6v_rmR5xic9A-13" target="N-algC2P6v_rmR5xic9A-14">
                    <mxGeometry relative="1" as="geometry"/>
                </mxCell>
                <mxCell id="N-algC2P6v_rmR5xic9A-11" style="edgeStyle=orthogonalEdgeStyle;rounded=0;html=1;exitX=0.75;exitY=1;exitDx=0;exitDy=0;entryX=0.25;entryY=0;entryDx=0;entryDy=0;startArrow=ERone;startFill=0;endArrow=ERzeroToMany;endFill=0;fontSize=9;" edge="1" parent="1" source="N-algC2P6v_rmR5xic9A-13" target="N-algC2P6v_rmR5xic9A-15">
                    <mxGeometry relative="1" as="geometry"/>
                </mxCell>
                <mxCell id="N-algC2P6v_rmR5xic9A-12" value="" style="edgeStyle=orthogonalEdgeStyle;rounded=0;html=1;startArrow=ERone;startFill=0;endArrow=ERzeroToMany;endFill=0;fontSize=9;" edge="1" parent="1" source="N-algC2P6v_rmR5xic9A-13" target="N-algC2P6v_rmR5xic9A-9">
                    <mxGeometry relative="1" as="geometry"/>
                </mxCell>
                <mxCell id="N-algC2P6v_rmR5xic9A-13" value="RESPONSAVEL" style="rounded=0;whiteSpace=wrap;html=1;fontSize=9;" vertex="1" parent="1">
                    <mxGeometry x="40" y="160.02" width="80" height="40" as="geometry"/>
                </mxCell>
                <mxCell id="N-algC2P6v_rmR5xic9A-14" value="&lt;span style=&quot;font-size: 9px;&quot;&gt;LACO&lt;/span&gt;" style="shape=associativeEntity;whiteSpace=wrap;html=1;align=center;fontSize=9;" vertex="1" parent="1">
                    <mxGeometry x="40" y="80.02" width="80" height="40" as="geometry"/>
                </mxCell>
                <mxCell id="N-algC2P6v_rmR5xic9A-15" value="CONTRATO" style="rounded=0;whiteSpace=wrap;html=1;fontSize=9;" vertex="1" parent="1">
                    <mxGeometry x="160" y="240.02000000000004" width="80" height="40" as="geometry"/>
                </mxCell>
                <mxCell id="N-algC2P6v_rmR5xic9A-16" value="" style="edgeStyle=orthogonalEdgeStyle;rounded=0;html=1;startArrow=ERone;startFill=0;endArrow=ERzeroToOne;endFill=0;fontSize=9;" edge="1" parent="1" source="N-algC2P6v_rmR5xic9A-17" target="N-algC2P6v_rmR5xic9A-15">
                    <mxGeometry relative="1" as="geometry"/>
                </mxCell>
                <mxCell id="N-algC2P6v_rmR5xic9A-17" value="DOCUMENTO" style="rounded=0;whiteSpace=wrap;html=1;fontSize=9;" vertex="1" parent="1">
                    <mxGeometry x="280" y="240.02000000000004" width="80" height="40" as="geometry"/>
                </mxCell>
                <mxCell id="N-algC2P6v_rmR5xic9A-19" value="" style="edgeStyle=orthogonalEdgeStyle;rounded=0;html=1;startArrow=ERzeroToMany;startFill=0;endArrow=ERone;endFill=0;fontSize=9;entryX=0.5;entryY=1;entryDx=0;entryDy=0;" edge="1" parent="1" source="N-algC2P6v_rmR5xic9A-20" target="N-algC2P6v_rmR5xic9A-36">
                    <mxGeometry relative="1" as="geometry">
                        <Array as="points">
                            <mxPoint x="500" y="100"/>
                            <mxPoint x="500" y="290"/>
                            <mxPoint x="440" y="290"/>
                        </Array>
                    </mxGeometry>
                </mxCell>
                <mxCell id="N-algC2P6v_rmR5xic9A-20" value="CAMINHO" style="rounded=0;whiteSpace=wrap;html=1;fontSize=9;" vertex="1" parent="1">
                    <mxGeometry x="400" y="80.02" width="80" height="40" as="geometry"/>
                </mxCell>
                <mxCell id="N-algC2P6v_rmR5xic9A-21" style="edgeStyle=orthogonalEdgeStyle;rounded=0;html=1;entryX=1;entryY=0.5;entryDx=0;entryDy=0;startArrow=ERone;startFill=0;endArrow=ERzeroToMany;endFill=0;fontSize=9;exitX=0.25;exitY=1;exitDx=0;exitDy=0;" edge="1" parent="1" source="N-algC2P6v_rmR5xic9A-24" target="N-algC2P6v_rmR5xic9A-17">
                    <mxGeometry relative="1" as="geometry">
                        <Array as="points">
                            <mxPoint x="420" y="220"/>
                            <mxPoint x="380" y="220"/>
                            <mxPoint x="380" y="260"/>
                        </Array>
                    </mxGeometry>
                </mxCell>
                <mxCell id="N-algC2P6v_rmR5xic9A-22" style="edgeStyle=orthogonalEdgeStyle;rounded=0;html=1;exitX=0;exitY=0.25;exitDx=0;exitDy=0;entryX=1;entryY=0.25;entryDx=0;entryDy=0;startArrow=ERone;startFill=0;endArrow=ERzeroToMany;endFill=0;fontSize=9;" edge="1" parent="1" source="N-algC2P6v_rmR5xic9A-24" target="N-algC2P6v_rmR5xic9A-8">
                    <mxGeometry relative="1" as="geometry"/>
                </mxCell>
                <mxCell id="N-algC2P6v_rmR5xic9A-23" style="edgeStyle=orthogonalEdgeStyle;rounded=0;html=1;exitX=0;exitY=0.75;exitDx=0;exitDy=0;entryX=1;entryY=0.75;entryDx=0;entryDy=0;startArrow=ERone;startFill=0;endArrow=ERzeroToMany;endFill=0;fontSize=9;" edge="1" parent="1" source="N-algC2P6v_rmR5xic9A-24" target="N-algC2P6v_rmR5xic9A-8">
                    <mxGeometry relative="1" as="geometry"/>
                </mxCell>
                <mxCell id="N-algC2P6v_rmR5xic9A-24" value="COLABORADOR" style="rounded=0;whiteSpace=wrap;html=1;fontSize=9;" vertex="1" parent="1">
                    <mxGeometry x="400" y="160.02" width="80" height="40" as="geometry"/>
                </mxCell>
                <mxCell id="N-algC2P6v_rmR5xic9A-25" style="edgeStyle=orthogonalEdgeStyle;rounded=0;html=1;exitX=0.25;exitY=1;exitDx=0;exitDy=0;entryX=0.75;entryY=0;entryDx=0;entryDy=0;startArrow=ERone;startFill=0;endArrow=ERzeroToMany;endFill=0;fontSize=9;" edge="1" parent="1" source="N-algC2P6v_rmR5xic9A-28" target="N-algC2P6v_rmR5xic9A-5">
                    <mxGeometry relative="1" as="geometry"/>
                </mxCell>
                <mxCell id="N-algC2P6v_rmR5xic9A-26" value="" style="edgeStyle=orthogonalEdgeStyle;rounded=0;html=1;startArrow=ERone;startFill=0;endArrow=ERzeroToMany;endFill=0;fontSize=9;" edge="1" parent="1" source="N-algC2P6v_rmR5xic9A-28" target="N-algC2P6v_rmR5xic9A-8">
                    <mxGeometry relative="1" as="geometry"/>
                </mxCell>
                <mxCell id="N-algC2P6v_rmR5xic9A-27" style="edgeStyle=orthogonalEdgeStyle;rounded=0;html=1;entryX=0.25;entryY=0;entryDx=0;entryDy=0;startArrow=ERone;startFill=0;endArrow=ERzeroToMany;endFill=0;fontSize=9;exitX=0.75;exitY=1;exitDx=0;exitDy=0;" edge="1" parent="1" source="N-algC2P6v_rmR5xic9A-28" target="N-algC2P6v_rmR5xic9A-24">
                    <mxGeometry relative="1" as="geometry">
                        <mxPoint x="330" y="120" as="sourcePoint"/>
                        <Array as="points">
                            <mxPoint x="340" y="140"/>
                            <mxPoint x="420" y="140"/>
                        </Array>
                    </mxGeometry>
                </mxCell>
                <mxCell id="N-algC2P6v_rmR5xic9A-28" value="EMPRESA" style="rounded=0;whiteSpace=wrap;html=1;fontSize=9;" vertex="1" parent="1">
                    <mxGeometry x="280" y="80.02" width="80" height="40" as="geometry"/>
                </mxCell>
                <mxCell id="N-algC2P6v_rmR5xic9A-29" value="" style="endArrow=none;html=1;rounded=0;fontFamily=Helvetica;fontSize=9;" edge="1" parent="1">
                    <mxGeometry width="50" height="50" relative="1" as="geometry">
                        <mxPoint x="104" y="130.01999999999998" as="sourcePoint"/>
                        <mxPoint x="95.99999999999989" y="130.01999999999998" as="targetPoint"/>
                    </mxGeometry>
                </mxCell>
                <mxCell id="N-algC2P6v_rmR5xic9A-30" value="Agenda" style="text;html=1;strokeColor=none;fillColor=none;align=center;verticalAlign=middle;whiteSpace=wrap;rounded=0;fontSize=9;" vertex="1" parent="1">
                    <mxGeometry x="360" y="150.02" width="40" height="10" as="geometry"/>
                </mxCell>
                <mxCell id="N-algC2P6v_rmR5xic9A-31" value="Conduz" style="text;html=1;strokeColor=none;fillColor=none;align=center;verticalAlign=middle;whiteSpace=wrap;rounded=0;fontSize=9;" vertex="1" parent="1">
                    <mxGeometry x="360" y="200.02" width="40" height="10" as="geometry"/>
                </mxCell>
                <mxCell id="N-algC2P6v_rmR5xic9A-32" value="Mudanças desde a versão 4.2&lt;br&gt;&lt;br&gt;- DEL: Entidade &quot;AVALIACAO&quot;&lt;br&gt;- ADD: Entidade &quot;CAMINHO&quot;&lt;br&gt;- ADD: Relação entre &quot;USUARIO&quot; e &quot;CAMINHO&quot;" style="shape=note;whiteSpace=wrap;html=1;backgroundOutline=1;darkOpacity=0.05;fontFamily=Helvetica;fontSize=10;size=20;align=left;verticalAlign=top;" vertex="1" parent="1">
                    <mxGeometry x="40" y="320.02" width="280" height="119.98" as="geometry"/>
                </mxCell>
                <mxCell id="N-algC2P6v_rmR5xic9A-33" value="DER-v4.3" style="text;html=1;strokeColor=none;fillColor=none;align=left;verticalAlign=middle;whiteSpace=wrap;rounded=0;fontSize=8;labelPosition=center;verticalLabelPosition=middle;" vertex="1" parent="1">
                    <mxGeometry width="50" height="10" as="geometry"/>
                </mxCell>
                <mxCell id="N-algC2P6v_rmR5xic9A-34" value="03/02/2025" style="text;html=1;strokeColor=none;fillColor=none;align=left;verticalAlign=middle;whiteSpace=wrap;rounded=0;fontSize=8;labelPosition=center;verticalLabelPosition=middle;" vertex="1" parent="1">
                    <mxGeometry y="10" width="50" height="10" as="geometry"/>
                </mxCell>
                <mxCell id="N-algC2P6v_rmR5xic9A-35" style="edgeStyle=none;html=1;entryX=0.5;entryY=1;entryDx=0;entryDy=0;fontSize=9;endArrow=ERone;endFill=0;startArrow=ERzeroToOne;startFill=0;" edge="1" parent="1" source="N-algC2P6v_rmR5xic9A-36" target="N-algC2P6v_rmR5xic9A-24">
                    <mxGeometry relative="1" as="geometry"/>
                </mxCell>
                <mxCell id="N-algC2P6v_rmR5xic9A-36" value="USUARIO" style="rounded=0;whiteSpace=wrap;html=1;fontSize=9;" vertex="1" parent="1">
                    <mxGeometry x="400" y="240.02" width="80" height="40" as="geometry"/>
                </mxCell>
            </root>
        </mxGraphModel>
    </diagram>
    <diagram id="epBr7tbo5na4SatQFQ0m" name="v4.2">
        <mxGraphModel dx="629" dy="355" grid="1" gridSize="10" guides="1" tooltips="1" connect="1" arrows="1" fold="1" page="1" pageScale="1" pageWidth="1169" pageHeight="827" math="0" shadow="0">
            <root>
                <mxCell id="0"/>
                <mxCell id="1" parent="0"/>
                <mxCell id="2" value="" style="edgeStyle=orthogonalEdgeStyle;rounded=0;html=1;startArrow=ERone;startFill=0;endArrow=ERzeroToMany;endFill=0;fontSize=9;" parent="1" source="6" target="9" edge="1">
                    <mxGeometry relative="1" as="geometry"/>
                </mxCell>
                <mxCell id="3" style="edgeStyle=orthogonalEdgeStyle;rounded=0;html=1;entryX=0.75;entryY=1;entryDx=0;entryDy=0;startArrow=ERone;startFill=0;endArrow=ERoneToMany;endFill=0;exitX=0;exitY=0.5;exitDx=0;exitDy=0;fontSize=9;" parent="1" source="6" target="15" edge="1">
                    <mxGeometry relative="1" as="geometry">
                        <Array as="points">
                            <mxPoint x="140" y="180.02"/>
                            <mxPoint x="140" y="150.02"/>
                            <mxPoint x="100" y="150.02"/>
                        </Array>
                    </mxGeometry>
                </mxCell>
                <mxCell id="4" value="" style="edgeStyle=orthogonalEdgeStyle;rounded=0;html=1;startArrow=ERone;startFill=0;endArrow=ERzeroToMany;endFill=0;fontSize=9;" parent="1" source="6" target="16" edge="1">
                    <mxGeometry relative="1" as="geometry"/>
                </mxCell>
                <mxCell id="5" style="edgeStyle=orthogonalEdgeStyle;rounded=0;html=1;exitX=0.75;exitY=1;exitDx=0;exitDy=0;entryX=0.5;entryY=0;entryDx=0;entryDy=0;startArrow=ERone;startFill=0;endArrow=ERzeroToMany;endFill=0;fontSize=9;" parent="1" source="6" target="18" edge="1">
                    <mxGeometry relative="1" as="geometry"/>
                </mxCell>
                <mxCell id="6" value="PACIENTE" style="rounded=0;whiteSpace=wrap;html=1;fontSize=9;" parent="1" vertex="1">
                    <mxGeometry x="160" y="160.02" width="80" height="40" as="geometry"/>
                </mxCell>
                <mxCell id="7" value="" style="edgeStyle=orthogonalEdgeStyle;html=1;endArrow=ERzeroToMany;endFill=0;startArrow=ERone;startFill=0;fontSize=9;" parent="1" source="8" target="6" edge="1">
                    <mxGeometry relative="1" as="geometry"/>
                </mxCell>
                <mxCell id="8" value="CONVENIO" style="rounded=0;whiteSpace=wrap;html=1;fontSize=9;" parent="1" vertex="1">
                    <mxGeometry x="160" y="80.02" width="80" height="40" as="geometry"/>
                </mxCell>
                <mxCell id="9" value="AGENDAMENTO" style="rounded=0;whiteSpace=wrap;html=1;fontSize=9;" parent="1" vertex="1">
                    <mxGeometry x="280" y="160.02" width="80" height="40" as="geometry"/>
                </mxCell>
                <mxCell id="10" value="PAGAMENTO" style="rounded=0;whiteSpace=wrap;html=1;fontSize=9;" parent="1" vertex="1">
                    <mxGeometry x="40" y="240.02000000000004" width="80" height="40" as="geometry"/>
                </mxCell>
                <mxCell id="11" value="" style="edgeStyle=orthogonalEdgeStyle;rounded=0;html=1;startArrow=ERone;startFill=0;endArrow=ERoneToMany;endFill=0;fontSize=9;" parent="1" source="14" target="15" edge="1">
                    <mxGeometry relative="1" as="geometry"/>
                </mxCell>
                <mxCell id="12" style="edgeStyle=orthogonalEdgeStyle;rounded=0;html=1;exitX=0.75;exitY=1;exitDx=0;exitDy=0;entryX=0.25;entryY=0;entryDx=0;entryDy=0;startArrow=ERone;startFill=0;endArrow=ERzeroToMany;endFill=0;fontSize=9;" parent="1" source="14" target="16" edge="1">
                    <mxGeometry relative="1" as="geometry"/>
                </mxCell>
                <mxCell id="13" value="" style="edgeStyle=orthogonalEdgeStyle;rounded=0;html=1;startArrow=ERone;startFill=0;endArrow=ERzeroToMany;endFill=0;fontSize=9;" parent="1" source="14" target="10" edge="1">
                    <mxGeometry relative="1" as="geometry"/>
                </mxCell>
                <mxCell id="14" value="RESPONSAVEL" style="rounded=0;whiteSpace=wrap;html=1;fontSize=9;" parent="1" vertex="1">
                    <mxGeometry x="40" y="160.02" width="80" height="40" as="geometry"/>
                </mxCell>
                <mxCell id="15" value="&lt;span style=&quot;font-size: 9px;&quot;&gt;LACO&lt;/span&gt;" style="shape=associativeEntity;whiteSpace=wrap;html=1;align=center;fontSize=9;" parent="1" vertex="1">
                    <mxGeometry x="40" y="80.02" width="80" height="40" as="geometry"/>
                </mxCell>
                <mxCell id="16" value="CONTRATO" style="rounded=0;whiteSpace=wrap;html=1;fontSize=9;" parent="1" vertex="1">
                    <mxGeometry x="160" y="240.02000000000004" width="80" height="40" as="geometry"/>
                </mxCell>
                <mxCell id="17" value="" style="edgeStyle=orthogonalEdgeStyle;rounded=0;html=1;startArrow=ERone;startFill=0;endArrow=ERzeroToOne;endFill=0;fontSize=9;" parent="1" source="18" target="16" edge="1">
                    <mxGeometry relative="1" as="geometry"/>
                </mxCell>
                <mxCell id="18" value="DOCUMENTO" style="rounded=0;whiteSpace=wrap;html=1;fontSize=9;" parent="1" vertex="1">
                    <mxGeometry x="280" y="240.02000000000004" width="80" height="40" as="geometry"/>
                </mxCell>
                <mxCell id="19" style="edgeStyle=orthogonalEdgeStyle;rounded=0;html=1;entryX=0.25;entryY=0;entryDx=0;entryDy=0;endArrow=ERone;endFill=0;startArrow=ERzeroToMany;startFill=0;fontSize=9;" parent="1" source="21" target="6" edge="1">
                    <mxGeometry relative="1" as="geometry">
                        <Array as="points">
                            <mxPoint x="440" y="60.019999999999996"/>
                            <mxPoint x="140" y="60.019999999999996"/>
                            <mxPoint x="140" y="140.02"/>
                            <mxPoint x="180" y="140.02"/>
                        </Array>
                    </mxGeometry>
                </mxCell>
                <mxCell id="20" value="" style="edgeStyle=orthogonalEdgeStyle;rounded=0;html=1;startArrow=ERzeroToMany;startFill=0;endArrow=ERone;endFill=0;fontSize=9;" parent="1" source="21" target="25" edge="1">
                    <mxGeometry relative="1" as="geometry"/>
                </mxCell>
                <mxCell id="21" value="AVALIACAO" style="rounded=0;whiteSpace=wrap;html=1;fontSize=9;" parent="1" vertex="1">
                    <mxGeometry x="400" y="80.02" width="80" height="40" as="geometry"/>
                </mxCell>
                <mxCell id="22" style="edgeStyle=orthogonalEdgeStyle;rounded=0;html=1;entryX=1;entryY=0.5;entryDx=0;entryDy=0;startArrow=ERone;startFill=0;endArrow=ERzeroToMany;endFill=0;fontSize=9;exitX=0.25;exitY=1;exitDx=0;exitDy=0;" parent="1" source="25" target="18" edge="1">
                    <mxGeometry relative="1" as="geometry">
                        <Array as="points">
                            <mxPoint x="420" y="220"/>
                            <mxPoint x="380" y="220"/>
                            <mxPoint x="380" y="260"/>
                        </Array>
                    </mxGeometry>
                </mxCell>
                <mxCell id="23" style="edgeStyle=orthogonalEdgeStyle;rounded=0;html=1;exitX=0;exitY=0.25;exitDx=0;exitDy=0;entryX=1;entryY=0.25;entryDx=0;entryDy=0;startArrow=ERone;startFill=0;endArrow=ERzeroToMany;endFill=0;fontSize=9;" parent="1" source="25" target="9" edge="1">
                    <mxGeometry relative="1" as="geometry"/>
                </mxCell>
                <mxCell id="24" style="edgeStyle=orthogonalEdgeStyle;rounded=0;html=1;exitX=0;exitY=0.75;exitDx=0;exitDy=0;entryX=1;entryY=0.75;entryDx=0;entryDy=0;startArrow=ERone;startFill=0;endArrow=ERzeroToMany;endFill=0;fontSize=9;" parent="1" source="25" target="9" edge="1">
                    <mxGeometry relative="1" as="geometry"/>
                </mxCell>
                <mxCell id="25" value="COLABORADOR" style="rounded=0;whiteSpace=wrap;html=1;fontSize=9;" parent="1" vertex="1">
                    <mxGeometry x="400" y="160.02" width="80" height="40" as="geometry"/>
                </mxCell>
                <mxCell id="26" style="edgeStyle=orthogonalEdgeStyle;rounded=0;html=1;exitX=0.25;exitY=1;exitDx=0;exitDy=0;entryX=0.75;entryY=0;entryDx=0;entryDy=0;startArrow=ERone;startFill=0;endArrow=ERzeroToMany;endFill=0;fontSize=9;" parent="1" source="29" target="6" edge="1">
                    <mxGeometry relative="1" as="geometry"/>
                </mxCell>
                <mxCell id="27" value="" style="edgeStyle=orthogonalEdgeStyle;rounded=0;html=1;startArrow=ERone;startFill=0;endArrow=ERzeroToMany;endFill=0;fontSize=9;" parent="1" source="29" target="9" edge="1">
                    <mxGeometry relative="1" as="geometry"/>
                </mxCell>
                <mxCell id="28" style="edgeStyle=orthogonalEdgeStyle;rounded=0;html=1;entryX=0.25;entryY=0;entryDx=0;entryDy=0;startArrow=ERone;startFill=0;endArrow=ERzeroToMany;endFill=0;fontSize=9;exitX=0.75;exitY=1;exitDx=0;exitDy=0;" parent="1" source="29" target="25" edge="1">
                    <mxGeometry relative="1" as="geometry">
                        <mxPoint x="330" y="120" as="sourcePoint"/>
                        <Array as="points">
                            <mxPoint x="340" y="140"/>
                            <mxPoint x="420" y="140"/>
                        </Array>
                    </mxGeometry>
                </mxCell>
                <mxCell id="29" value="EMPRESA" style="rounded=0;whiteSpace=wrap;html=1;fontSize=9;" parent="1" vertex="1">
                    <mxGeometry x="280" y="80.02" width="80" height="40" as="geometry"/>
                </mxCell>
                <mxCell id="30" value="" style="endArrow=none;html=1;rounded=0;fontFamily=Helvetica;fontSize=9;" parent="1" edge="1">
                    <mxGeometry width="50" height="50" relative="1" as="geometry">
                        <mxPoint x="104" y="130.01999999999998" as="sourcePoint"/>
                        <mxPoint x="95.99999999999989" y="130.01999999999998" as="targetPoint"/>
                    </mxGeometry>
                </mxCell>
                <mxCell id="31" value="Agenda" style="text;html=1;strokeColor=none;fillColor=none;align=center;verticalAlign=middle;whiteSpace=wrap;rounded=0;fontSize=9;" parent="1" vertex="1">
                    <mxGeometry x="360" y="150.02" width="40" height="10" as="geometry"/>
                </mxCell>
                <mxCell id="32" value="Conduz" style="text;html=1;strokeColor=none;fillColor=none;align=center;verticalAlign=middle;whiteSpace=wrap;rounded=0;fontSize=9;" parent="1" vertex="1">
                    <mxGeometry x="360" y="200.02" width="40" height="10" as="geometry"/>
                </mxCell>
                <mxCell id="33" value="Mudanças desde a versão 4.1&lt;br&gt;&lt;br&gt;- ADD: Entidade &quot;USUARIO&quot;&lt;br&gt;- MOD: Nomes das entidades agora são representados em caixa alta e sem acentuação&lt;br&gt;- MOD: &quot;VINCULO&quot; alterado para &quot;LACO&quot; a fim de evitar confusão com a vinculação de terapias a pacientes" style="shape=note;whiteSpace=wrap;html=1;backgroundOutline=1;darkOpacity=0.05;fontFamily=Helvetica;fontSize=10;size=20;align=left;verticalAlign=top;" parent="1" vertex="1">
                    <mxGeometry x="40" y="320.02" width="280" height="119.98" as="geometry"/>
                </mxCell>
                <mxCell id="34" value="DER-v4.2" style="text;html=1;strokeColor=none;fillColor=none;align=left;verticalAlign=middle;whiteSpace=wrap;rounded=0;fontSize=8;labelPosition=center;verticalLabelPosition=middle;" parent="1" vertex="1">
                    <mxGeometry width="50" height="10" as="geometry"/>
                </mxCell>
                <mxCell id="35" value="23/01/2025" style="text;html=1;strokeColor=none;fillColor=none;align=left;verticalAlign=middle;whiteSpace=wrap;rounded=0;fontSize=8;labelPosition=center;verticalLabelPosition=middle;" parent="1" vertex="1">
                    <mxGeometry y="10" width="50" height="10" as="geometry"/>
                </mxCell>
                <mxCell id="zSzjH9KFb6jplFRDIYjm-38" style="edgeStyle=none;html=1;entryX=0.5;entryY=1;entryDx=0;entryDy=0;fontSize=9;endArrow=ERone;endFill=0;startArrow=ERzeroToOne;startFill=0;" parent="1" source="zSzjH9KFb6jplFRDIYjm-35" target="25" edge="1">
                    <mxGeometry relative="1" as="geometry"/>
                </mxCell>
                <mxCell id="zSzjH9KFb6jplFRDIYjm-35" value="USUARIO" style="rounded=0;whiteSpace=wrap;html=1;fontSize=9;" parent="1" vertex="1">
                    <mxGeometry x="400" y="240.02" width="80" height="40" as="geometry"/>
                </mxCell>
            </root>
        </mxGraphModel>
    </diagram>
    <diagram id="9YkmX3Uxhm3LUBP-Q5wO" name="v4.1">
        <mxGraphModel dx="832" dy="515" grid="1" gridSize="10" guides="1" tooltips="1" connect="1" arrows="1" fold="1" page="1" pageScale="1" pageWidth="1169" pageHeight="827" math="0" shadow="0">
            <root>
                <mxCell id="0"/>
                <mxCell id="1" parent="0"/>
                <mxCell id="8GjkAAJEKyXWms_naj2x-1" value="" style="edgeStyle=orthogonalEdgeStyle;rounded=0;html=1;startArrow=ERone;startFill=0;endArrow=ERzeroToMany;endFill=0;" edge="1" parent="1" source="8GjkAAJEKyXWms_naj2x-5" target="8GjkAAJEKyXWms_naj2x-8">
                    <mxGeometry relative="1" as="geometry"/>
                </mxCell>
                <mxCell id="8GjkAAJEKyXWms_naj2x-2" style="edgeStyle=orthogonalEdgeStyle;rounded=0;html=1;entryX=0.75;entryY=1;entryDx=0;entryDy=0;startArrow=ERone;startFill=0;endArrow=ERoneToMany;endFill=0;exitX=0;exitY=0.5;exitDx=0;exitDy=0;" edge="1" parent="1" source="8GjkAAJEKyXWms_naj2x-5" target="8GjkAAJEKyXWms_naj2x-14">
                    <mxGeometry relative="1" as="geometry">
                        <Array as="points">
                            <mxPoint x="140" y="140"/>
                            <mxPoint x="140" y="100"/>
                            <mxPoint x="100" y="100"/>
                        </Array>
                    </mxGeometry>
                </mxCell>
                <mxCell id="8GjkAAJEKyXWms_naj2x-3" value="" style="edgeStyle=orthogonalEdgeStyle;rounded=0;html=1;startArrow=ERone;startFill=0;endArrow=ERzeroToMany;endFill=0;" edge="1" parent="1" source="8GjkAAJEKyXWms_naj2x-5" target="8GjkAAJEKyXWms_naj2x-15">
                    <mxGeometry relative="1" as="geometry"/>
                </mxCell>
                <mxCell id="8GjkAAJEKyXWms_naj2x-4" style="edgeStyle=orthogonalEdgeStyle;rounded=0;html=1;exitX=0.75;exitY=1;exitDx=0;exitDy=0;entryX=0.5;entryY=0;entryDx=0;entryDy=0;startArrow=ERone;startFill=0;endArrow=ERzeroToMany;endFill=0;" edge="1" parent="1" source="8GjkAAJEKyXWms_naj2x-5" target="8GjkAAJEKyXWms_naj2x-17">
                    <mxGeometry relative="1" as="geometry"/>
                </mxCell>
                <mxCell id="8GjkAAJEKyXWms_naj2x-5" value="Paciente" style="rounded=0;whiteSpace=wrap;html=1;fontSize=12;" vertex="1" parent="1">
                    <mxGeometry x="160" y="120" width="80" height="40" as="geometry"/>
                </mxCell>
                <mxCell id="8GjkAAJEKyXWms_naj2x-6" value="" style="edgeStyle=orthogonalEdgeStyle;html=1;endArrow=ERzeroToMany;endFill=0;startArrow=ERone;startFill=0;" edge="1" parent="1" source="8GjkAAJEKyXWms_naj2x-7" target="8GjkAAJEKyXWms_naj2x-5">
                    <mxGeometry relative="1" as="geometry"/>
                </mxCell>
                <mxCell id="8GjkAAJEKyXWms_naj2x-7" value="Convenio" style="rounded=0;whiteSpace=wrap;html=1;fontSize=12;" vertex="1" parent="1">
                    <mxGeometry x="160" y="40" width="80" height="40" as="geometry"/>
                </mxCell>
                <mxCell id="8GjkAAJEKyXWms_naj2x-8" value="Agendamento" style="rounded=0;whiteSpace=wrap;html=1;fontSize=12;" vertex="1" parent="1">
                    <mxGeometry x="280" y="120" width="80" height="40" as="geometry"/>
                </mxCell>
                <mxCell id="8GjkAAJEKyXWms_naj2x-9" value="Pagamento" style="rounded=0;whiteSpace=wrap;html=1;fontSize=12;" vertex="1" parent="1">
                    <mxGeometry x="40" y="200" width="80" height="40" as="geometry"/>
                </mxCell>
                <mxCell id="8GjkAAJEKyXWms_naj2x-10" value="" style="edgeStyle=orthogonalEdgeStyle;rounded=0;html=1;startArrow=ERone;startFill=0;endArrow=ERoneToMany;endFill=0;" edge="1" parent="1" source="8GjkAAJEKyXWms_naj2x-13" target="8GjkAAJEKyXWms_naj2x-14">
                    <mxGeometry relative="1" as="geometry"/>
                </mxCell>
                <mxCell id="8GjkAAJEKyXWms_naj2x-11" style="edgeStyle=orthogonalEdgeStyle;rounded=0;html=1;exitX=0.75;exitY=1;exitDx=0;exitDy=0;entryX=0.25;entryY=0;entryDx=0;entryDy=0;startArrow=ERone;startFill=0;endArrow=ERzeroToMany;endFill=0;" edge="1" parent="1" source="8GjkAAJEKyXWms_naj2x-13" target="8GjkAAJEKyXWms_naj2x-15">
                    <mxGeometry relative="1" as="geometry"/>
                </mxCell>
                <mxCell id="8GjkAAJEKyXWms_naj2x-12" value="" style="edgeStyle=orthogonalEdgeStyle;rounded=0;html=1;startArrow=ERone;startFill=0;endArrow=ERzeroToMany;endFill=0;" edge="1" parent="1" source="8GjkAAJEKyXWms_naj2x-13" target="8GjkAAJEKyXWms_naj2x-9">
                    <mxGeometry relative="1" as="geometry"/>
                </mxCell>
                <mxCell id="8GjkAAJEKyXWms_naj2x-13" value="Responsável" style="rounded=0;whiteSpace=wrap;html=1;fontSize=12;" vertex="1" parent="1">
                    <mxGeometry x="40" y="120" width="80" height="40" as="geometry"/>
                </mxCell>
                <mxCell id="8GjkAAJEKyXWms_naj2x-14" value="&lt;font style=&quot;font-size: 12px;&quot;&gt;Vínculo&lt;/font&gt;" style="shape=associativeEntity;whiteSpace=wrap;html=1;align=center;fontSize=10;" vertex="1" parent="1">
                    <mxGeometry x="40" y="40" width="80" height="40" as="geometry"/>
                </mxCell>
                <mxCell id="8GjkAAJEKyXWms_naj2x-15" value="Contrato" style="rounded=0;whiteSpace=wrap;html=1;fontSize=12;" vertex="1" parent="1">
                    <mxGeometry x="160" y="200" width="80" height="40" as="geometry"/>
                </mxCell>
                <mxCell id="8GjkAAJEKyXWms_naj2x-16" value="" style="edgeStyle=orthogonalEdgeStyle;rounded=0;html=1;startArrow=ERone;startFill=0;endArrow=ERzeroToOne;endFill=0;" edge="1" parent="1" source="8GjkAAJEKyXWms_naj2x-17" target="8GjkAAJEKyXWms_naj2x-15">
                    <mxGeometry relative="1" as="geometry"/>
                </mxCell>
                <mxCell id="8GjkAAJEKyXWms_naj2x-17" value="Documento" style="rounded=0;whiteSpace=wrap;html=1;fontSize=12;" vertex="1" parent="1">
                    <mxGeometry x="280" y="200" width="80" height="40" as="geometry"/>
                </mxCell>
                <mxCell id="8GjkAAJEKyXWms_naj2x-18" style="edgeStyle=orthogonalEdgeStyle;rounded=0;html=1;entryX=0.25;entryY=0;entryDx=0;entryDy=0;endArrow=ERone;endFill=0;startArrow=ERzeroToMany;startFill=0;" edge="1" parent="1" source="8GjkAAJEKyXWms_naj2x-20" target="8GjkAAJEKyXWms_naj2x-5">
                    <mxGeometry relative="1" as="geometry">
                        <Array as="points">
                            <mxPoint x="440" y="20"/>
                            <mxPoint x="140" y="20"/>
                            <mxPoint x="140" y="90"/>
                            <mxPoint x="180" y="90"/>
                        </Array>
                    </mxGeometry>
                </mxCell>
                <mxCell id="8GjkAAJEKyXWms_naj2x-19" value="" style="edgeStyle=orthogonalEdgeStyle;rounded=0;html=1;startArrow=ERzeroToMany;startFill=0;endArrow=ERone;endFill=0;" edge="1" parent="1" source="8GjkAAJEKyXWms_naj2x-20" target="8GjkAAJEKyXWms_naj2x-24">
                    <mxGeometry relative="1" as="geometry"/>
                </mxCell>
                <mxCell id="8GjkAAJEKyXWms_naj2x-20" value="Avaliação" style="rounded=0;whiteSpace=wrap;html=1;fontSize=12;" vertex="1" parent="1">
                    <mxGeometry x="400" y="40" width="80" height="40" as="geometry"/>
                </mxCell>
                <mxCell id="8GjkAAJEKyXWms_naj2x-21" style="edgeStyle=orthogonalEdgeStyle;rounded=0;html=1;entryX=1;entryY=0.5;entryDx=0;entryDy=0;startArrow=ERone;startFill=0;endArrow=ERzeroToMany;endFill=0;" edge="1" parent="1" source="8GjkAAJEKyXWms_naj2x-24" target="8GjkAAJEKyXWms_naj2x-17">
                    <mxGeometry relative="1" as="geometry">
                        <Array as="points">
                            <mxPoint x="440" y="220"/>
                        </Array>
                    </mxGeometry>
                </mxCell>
                <mxCell id="8GjkAAJEKyXWms_naj2x-22" style="edgeStyle=orthogonalEdgeStyle;rounded=0;html=1;exitX=0;exitY=0.25;exitDx=0;exitDy=0;entryX=1;entryY=0.25;entryDx=0;entryDy=0;startArrow=ERone;startFill=0;endArrow=ERzeroToMany;endFill=0;" edge="1" parent="1" source="8GjkAAJEKyXWms_naj2x-24" target="8GjkAAJEKyXWms_naj2x-8">
                    <mxGeometry relative="1" as="geometry"/>
                </mxCell>
                <mxCell id="8GjkAAJEKyXWms_naj2x-23" style="edgeStyle=orthogonalEdgeStyle;rounded=0;html=1;exitX=0;exitY=0.75;exitDx=0;exitDy=0;entryX=1;entryY=0.75;entryDx=0;entryDy=0;startArrow=ERone;startFill=0;endArrow=ERzeroToMany;endFill=0;" edge="1" parent="1" source="8GjkAAJEKyXWms_naj2x-24" target="8GjkAAJEKyXWms_naj2x-8">
                    <mxGeometry relative="1" as="geometry"/>
                </mxCell>
                <mxCell id="8GjkAAJEKyXWms_naj2x-24" value="Colaborador" style="rounded=0;whiteSpace=wrap;html=1;fontSize=12;" vertex="1" parent="1">
                    <mxGeometry x="400" y="120" width="80" height="40" as="geometry"/>
                </mxCell>
                <mxCell id="8GjkAAJEKyXWms_naj2x-25" style="edgeStyle=orthogonalEdgeStyle;rounded=0;html=1;exitX=0.25;exitY=1;exitDx=0;exitDy=0;entryX=0.75;entryY=0;entryDx=0;entryDy=0;startArrow=ERone;startFill=0;endArrow=ERzeroToMany;endFill=0;" edge="1" parent="1" source="8GjkAAJEKyXWms_naj2x-28" target="8GjkAAJEKyXWms_naj2x-5">
                    <mxGeometry relative="1" as="geometry"/>
                </mxCell>
                <mxCell id="8GjkAAJEKyXWms_naj2x-26" value="" style="edgeStyle=orthogonalEdgeStyle;rounded=0;html=1;startArrow=ERone;startFill=0;endArrow=ERzeroToMany;endFill=0;" edge="1" parent="1" source="8GjkAAJEKyXWms_naj2x-28" target="8GjkAAJEKyXWms_naj2x-8">
                    <mxGeometry relative="1" as="geometry"/>
                </mxCell>
                <mxCell id="8GjkAAJEKyXWms_naj2x-27" style="edgeStyle=orthogonalEdgeStyle;rounded=0;html=1;exitX=0.75;exitY=1;exitDx=0;exitDy=0;entryX=0.25;entryY=0;entryDx=0;entryDy=0;startArrow=ERone;startFill=0;endArrow=ERzeroToMany;endFill=0;" edge="1" parent="1" source="8GjkAAJEKyXWms_naj2x-28" target="8GjkAAJEKyXWms_naj2x-24">
                    <mxGeometry relative="1" as="geometry"/>
                </mxCell>
                <mxCell id="8GjkAAJEKyXWms_naj2x-28" value="Empresa" style="rounded=0;whiteSpace=wrap;html=1;fontSize=12;" vertex="1" parent="1">
                    <mxGeometry x="280" y="40" width="80" height="40" as="geometry"/>
                </mxCell>
                <mxCell id="8GjkAAJEKyXWms_naj2x-29" value="" style="endArrow=none;html=1;rounded=0;fontFamily=Helvetica;fontSize=10;" edge="1" parent="1">
                    <mxGeometry width="50" height="50" relative="1" as="geometry">
                        <mxPoint x="104" y="90" as="sourcePoint"/>
                        <mxPoint x="96" y="90" as="targetPoint"/>
                    </mxGeometry>
                </mxCell>
                <mxCell id="8GjkAAJEKyXWms_naj2x-30" value="Agenda" style="text;html=1;strokeColor=none;fillColor=none;align=center;verticalAlign=middle;whiteSpace=wrap;rounded=0;fontSize=10;" vertex="1" parent="1">
                    <mxGeometry x="360" y="110" width="40" height="10" as="geometry"/>
                </mxCell>
                <mxCell id="8GjkAAJEKyXWms_naj2x-31" value="Conduz" style="text;html=1;strokeColor=none;fillColor=none;align=center;verticalAlign=middle;whiteSpace=wrap;rounded=0;fontSize=10;" vertex="1" parent="1">
                    <mxGeometry x="360" y="160" width="40" height="10" as="geometry"/>
                </mxCell>
                <mxCell id="8GjkAAJEKyXWms_naj2x-32" value="Mudanças desde a versão 4.0&lt;br&gt;&lt;br&gt;- ADD: Relação entre &quot;Empresa&quot; e &quot;Agendamento&quot;&lt;br&gt;- MOD: Layout do diagrama" style="shape=note;whiteSpace=wrap;html=1;backgroundOutline=1;darkOpacity=0.05;fontFamily=Helvetica;fontSize=10;size=20;align=left;verticalAlign=top;" vertex="1" parent="1">
                    <mxGeometry x="40" y="280" width="240" height="80" as="geometry"/>
                </mxCell>
            </root>
        </mxGraphModel>
    </diagram>
    <diagram id="ug3MdCPCPqzMpJzLcj1g" name="v4.0">
        <mxGraphModel dx="574" dy="355" grid="1" gridSize="10" guides="1" tooltips="1" connect="1" arrows="1" fold="1" page="1" pageScale="1" pageWidth="1169" pageHeight="827" math="0" shadow="0">
            <root>
                <mxCell id="0"/>
                <mxCell id="1" parent="0"/>
                <mxCell id="ZqvTZy3nUoFelVD5746r-1" value="" style="edgeStyle=orthogonalEdgeStyle;rounded=0;html=1;fontFamily=Comic Sans MS;fontSize=12;endArrow=ERzeroToMany;endFill=0;startArrow=ERone;startFill=0;" edge="1" parent="1" source="ZqvTZy3nUoFelVD5746r-6" target="ZqvTZy3nUoFelVD5746r-14">
                    <mxGeometry relative="1" as="geometry"/>
                </mxCell>
                <mxCell id="ZqvTZy3nUoFelVD5746r-2" value="" style="edgeStyle=orthogonalEdgeStyle;rounded=0;html=1;fontFamily=Comic Sans MS;fontSize=12;startArrow=ERone;startFill=0;endArrow=ERoneToMany;endFill=0;" edge="1" parent="1" source="ZqvTZy3nUoFelVD5746r-6">
                    <mxGeometry relative="1" as="geometry">
                        <mxPoint x="200" y="200" as="targetPoint"/>
                        <Array as="points">
                            <mxPoint x="200" y="190"/>
                            <mxPoint x="200" y="190"/>
                        </Array>
                    </mxGeometry>
                </mxCell>
                <mxCell id="ZqvTZy3nUoFelVD5746r-3" value="" style="edgeStyle=orthogonalEdgeStyle;rounded=0;html=1;fontFamily=Comic Sans MS;fontSize=12;startArrow=ERone;startFill=0;endArrow=ERzeroToMany;endFill=0;" edge="1" parent="1" source="ZqvTZy3nUoFelVD5746r-6" target="ZqvTZy3nUoFelVD5746r-19">
                    <mxGeometry relative="1" as="geometry"/>
                </mxCell>
                <mxCell id="ZqvTZy3nUoFelVD5746r-4" style="edgeStyle=orthogonalEdgeStyle;rounded=0;html=1;entryX=0.25;entryY=0;entryDx=0;entryDy=0;fontFamily=Comic Sans MS;fontSize=12;startArrow=ERone;startFill=0;endArrow=ERzeroToMany;endFill=0;" edge="1" parent="1" target="ZqvTZy3nUoFelVD5746r-15">
                    <mxGeometry relative="1" as="geometry">
                        <mxPoint x="220" y="160" as="sourcePoint"/>
                        <Array as="points">
                            <mxPoint x="220" y="180"/>
                            <mxPoint x="300" y="180"/>
                        </Array>
                    </mxGeometry>
                </mxCell>
                <mxCell id="ZqvTZy3nUoFelVD5746r-5" style="edgeStyle=orthogonalEdgeStyle;rounded=0;html=1;exitX=0.75;exitY=0;exitDx=0;exitDy=0;entryX=0.25;entryY=1;entryDx=0;entryDy=0;fontFamily=Comic Sans MS;fontSize=12;startArrow=ERone;startFill=0;endArrow=ERzeroToMany;endFill=0;" edge="1" parent="1" source="ZqvTZy3nUoFelVD5746r-6" target="ZqvTZy3nUoFelVD5746r-13">
                    <mxGeometry relative="1" as="geometry"/>
                </mxCell>
                <mxCell id="ZqvTZy3nUoFelVD5746r-6" value="Paciente" style="rounded=0;whiteSpace=wrap;html=1;fontSize=12;" vertex="1" parent="1">
                    <mxGeometry x="160" y="119.99999999999999" width="80" height="40" as="geometry"/>
                </mxCell>
                <mxCell id="ZqvTZy3nUoFelVD5746r-7" value="" style="edgeStyle=orthogonalEdgeStyle;rounded=0;html=1;fontFamily=Comic Sans MS;fontSize=12;startArrow=ERone;startFill=0;endArrow=ERzeroToMany;endFill=0;" edge="1" parent="1" source="ZqvTZy3nUoFelVD5746r-12" target="ZqvTZy3nUoFelVD5746r-19">
                    <mxGeometry relative="1" as="geometry"/>
                </mxCell>
                <mxCell id="ZqvTZy3nUoFelVD5746r-8" value="&lt;font style=&quot;font-size: 10px;&quot; face=&quot;Helvetica&quot;&gt;Agenda&lt;/font&gt;" style="edgeStyle=orthogonalEdgeStyle;rounded=0;html=1;exitX=0;exitY=0.25;exitDx=0;exitDy=0;entryX=1;entryY=0.75;entryDx=0;entryDy=0;fontFamily=Comic Sans MS;fontSize=12;startArrow=ERone;startFill=0;endArrow=ERzeroToMany;endFill=0;" edge="1" parent="1" source="ZqvTZy3nUoFelVD5746r-12" target="ZqvTZy3nUoFelVD5746r-13">
                    <mxGeometry relative="1" as="geometry"/>
                </mxCell>
                <mxCell id="ZqvTZy3nUoFelVD5746r-9" style="edgeStyle=orthogonalEdgeStyle;rounded=0;html=1;exitX=0.25;exitY=0;exitDx=0;exitDy=0;entryX=1;entryY=0.5;entryDx=0;entryDy=0;fontFamily=Helvetica;fontSize=12;startArrow=ERone;startFill=0;endArrow=ERzeroToMany;endFill=0;" edge="1" parent="1" source="ZqvTZy3nUoFelVD5746r-12" target="ZqvTZy3nUoFelVD5746r-13">
                    <mxGeometry relative="1" as="geometry"/>
                </mxCell>
                <mxCell id="ZqvTZy3nUoFelVD5746r-10" value="&lt;font style=&quot;font-size: 10px;&quot;&gt;Conduz&lt;/font&gt;" style="edgeLabel;html=1;align=center;verticalAlign=middle;resizable=0;points=[];fontSize=12;fontFamily=Helvetica;" vertex="1" connectable="0" parent="ZqvTZy3nUoFelVD5746r-9">
                    <mxGeometry x="-0.3167" relative="1" as="geometry">
                        <mxPoint y="11" as="offset"/>
                    </mxGeometry>
                </mxCell>
                <mxCell id="ZqvTZy3nUoFelVD5746r-11" style="edgeStyle=orthogonalEdgeStyle;rounded=0;html=1;entryX=0.5;entryY=0;entryDx=0;entryDy=0;fontFamily=Helvetica;fontSize=12;startArrow=ERone;startFill=0;endArrow=ERzeroToMany;endFill=0;" edge="1" parent="1" source="ZqvTZy3nUoFelVD5746r-12" target="ZqvTZy3nUoFelVD5746r-14">
                    <mxGeometry relative="1" as="geometry">
                        <Array as="points">
                            <mxPoint x="440" y="20.000000000000004"/>
                            <mxPoint x="200" y="20.000000000000004"/>
                        </Array>
                    </mxGeometry>
                </mxCell>
                <mxCell id="ZqvTZy3nUoFelVD5746r-12" value="Colaborador" style="rounded=0;whiteSpace=wrap;html=1;fontSize=12;" vertex="1" parent="1">
                    <mxGeometry x="400" y="119.99999999999999" width="80" height="40" as="geometry"/>
                </mxCell>
                <mxCell id="ZqvTZy3nUoFelVD5746r-13" value="Agendamento" style="rounded=0;whiteSpace=wrap;html=1;fontSize=12;" vertex="1" parent="1">
                    <mxGeometry x="280" y="40" width="80" height="40" as="geometry"/>
                </mxCell>
                <mxCell id="ZqvTZy3nUoFelVD5746r-14" value="Avaliação" style="rounded=0;whiteSpace=wrap;html=1;fontSize=12;" vertex="1" parent="1">
                    <mxGeometry x="160" y="40" width="80" height="40" as="geometry"/>
                </mxCell>
                <mxCell id="ZqvTZy3nUoFelVD5746r-15" value="Contrato" style="rounded=0;whiteSpace=wrap;html=1;fontSize=12;" vertex="1" parent="1">
                    <mxGeometry x="280" y="280" width="80" height="40" as="geometry"/>
                </mxCell>
                <mxCell id="ZqvTZy3nUoFelVD5746r-16" style="edgeStyle=orthogonalEdgeStyle;rounded=0;html=1;entryX=0;entryY=0.5;entryDx=0;entryDy=0;fontFamily=Comic Sans MS;fontSize=12;startArrow=ERone;startFill=0;endArrow=ERzeroToMany;endFill=0;" edge="1" parent="1" source="ZqvTZy3nUoFelVD5746r-17" target="ZqvTZy3nUoFelVD5746r-6">
                    <mxGeometry relative="1" as="geometry"/>
                </mxCell>
                <mxCell id="ZqvTZy3nUoFelVD5746r-17" value="Convenio" style="rounded=0;whiteSpace=wrap;html=1;fontSize=12;" vertex="1" parent="1">
                    <mxGeometry x="40" y="119.99999999999999" width="80" height="40" as="geometry"/>
                </mxCell>
                <mxCell id="ZqvTZy3nUoFelVD5746r-18" style="edgeStyle=orthogonalEdgeStyle;rounded=0;html=1;entryX=0.5;entryY=0;entryDx=0;entryDy=0;fontFamily=Comic Sans MS;fontSize=12;startArrow=ERone;startFill=0;endArrow=ERzeroToOne;endFill=0;" edge="1" parent="1" source="ZqvTZy3nUoFelVD5746r-19" target="ZqvTZy3nUoFelVD5746r-15">
                    <mxGeometry relative="1" as="geometry"/>
                </mxCell>
                <mxCell id="ZqvTZy3nUoFelVD5746r-19" value="Documento" style="rounded=0;whiteSpace=wrap;html=1;fontSize=12;" vertex="1" parent="1">
                    <mxGeometry x="280" y="119.99999999999999" width="80" height="40" as="geometry"/>
                </mxCell>
                <mxCell id="ZqvTZy3nUoFelVD5746r-20" value="Pagamento" style="rounded=0;whiteSpace=wrap;html=1;fontSize=12;" vertex="1" parent="1">
                    <mxGeometry x="160" y="360" width="80" height="40" as="geometry"/>
                </mxCell>
                <mxCell id="ZqvTZy3nUoFelVD5746r-21" value="" style="edgeStyle=orthogonalEdgeStyle;rounded=0;html=1;fontFamily=Comic Sans MS;fontSize=12;startArrow=ERone;startFill=0;endArrow=ERoneToMany;endFill=0;" edge="1" parent="1" source="ZqvTZy3nUoFelVD5746r-24" target="ZqvTZy3nUoFelVD5746r-28">
                    <mxGeometry relative="1" as="geometry"/>
                </mxCell>
                <mxCell id="ZqvTZy3nUoFelVD5746r-22" style="edgeStyle=orthogonalEdgeStyle;rounded=0;html=1;entryX=0;entryY=0.5;entryDx=0;entryDy=0;fontFamily=Comic Sans MS;fontSize=12;startArrow=ERone;startFill=0;endArrow=ERzeroToMany;endFill=0;" edge="1" parent="1" source="ZqvTZy3nUoFelVD5746r-24" target="ZqvTZy3nUoFelVD5746r-15">
                    <mxGeometry relative="1" as="geometry"/>
                </mxCell>
                <mxCell id="ZqvTZy3nUoFelVD5746r-23" value="" style="edgeStyle=orthogonalEdgeStyle;rounded=0;html=1;fontFamily=Comic Sans MS;fontSize=12;startArrow=ERone;startFill=0;endArrow=ERzeroToMany;endFill=0;" edge="1" parent="1" source="ZqvTZy3nUoFelVD5746r-24" target="ZqvTZy3nUoFelVD5746r-20">
                    <mxGeometry relative="1" as="geometry"/>
                </mxCell>
                <mxCell id="ZqvTZy3nUoFelVD5746r-24" value="Responsável" style="rounded=0;whiteSpace=wrap;html=1;fontSize=12;" vertex="1" parent="1">
                    <mxGeometry x="160" y="280" width="80" height="40" as="geometry"/>
                </mxCell>
                <mxCell id="ZqvTZy3nUoFelVD5746r-25" style="edgeStyle=orthogonalEdgeStyle;rounded=0;html=1;entryX=0;entryY=0.75;entryDx=0;entryDy=0;fontFamily=Comic Sans MS;fontSize=12;startArrow=ERone;startFill=0;endArrow=ERzeroToMany;endFill=0;" edge="1" parent="1" source="ZqvTZy3nUoFelVD5746r-27" target="ZqvTZy3nUoFelVD5746r-6">
                    <mxGeometry relative="1" as="geometry"/>
                </mxCell>
                <mxCell id="ZqvTZy3nUoFelVD5746r-26" style="edgeStyle=orthogonalEdgeStyle;rounded=0;html=1;entryX=0.5;entryY=1;entryDx=0;entryDy=0;fontFamily=Helvetica;fontSize=10;startArrow=ERone;startFill=0;endArrow=ERzeroToMany;endFill=0;" edge="1" parent="1" source="ZqvTZy3nUoFelVD5746r-27" target="ZqvTZy3nUoFelVD5746r-12">
                    <mxGeometry relative="1" as="geometry">
                        <Array as="points">
                            <mxPoint x="80" y="420"/>
                            <mxPoint x="440" y="420"/>
                        </Array>
                    </mxGeometry>
                </mxCell>
                <mxCell id="ZqvTZy3nUoFelVD5746r-27" value="Empresa" style="rounded=0;whiteSpace=wrap;html=1;fontSize=12;" vertex="1" parent="1">
                    <mxGeometry x="40" y="280" width="80" height="40" as="geometry"/>
                </mxCell>
                <mxCell id="ZqvTZy3nUoFelVD5746r-28" value="&lt;font style=&quot;font-size: 12px;&quot;&gt;Vínculo&lt;/font&gt;" style="shape=associativeEntity;whiteSpace=wrap;html=1;align=center;fontSize=10;" vertex="1" parent="1">
                    <mxGeometry x="160" y="200" width="80" height="40" as="geometry"/>
                </mxCell>
                <mxCell id="ZqvTZy3nUoFelVD5746r-29" value="" style="endArrow=none;html=1;rounded=0;fontFamily=Helvetica;fontSize=10;" edge="1" parent="1">
                    <mxGeometry width="50" height="50" relative="1" as="geometry">
                        <mxPoint x="205" y="190" as="sourcePoint"/>
                        <mxPoint x="195" y="190" as="targetPoint"/>
                    </mxGeometry>
                </mxCell>
                <mxCell id="ZqvTZy3nUoFelVD5746r-30" value="Mudanças desde a versão 3.1&lt;br&gt;&lt;br&gt;- ADD: Entidade &quot;Convênio&quot;&lt;br&gt;- ADD: Entidade &quot;Empresa&quot;&lt;br&gt;- MOD: Modelo de diagrama (agora não possui mais os losângulos dos relacionamentos e a cardinalidade é apresentada como no MR)" style="shape=note;whiteSpace=wrap;html=1;backgroundOutline=1;darkOpacity=0.05;fontFamily=Helvetica;fontSize=10;size=20;align=left;" vertex="1" parent="1">
                    <mxGeometry x="40" y="480" width="240" height="120" as="geometry"/>
                </mxCell>
            </root>
        </mxGraphModel>
    </diagram>
    <diagram id="_ExNZkFJIx6dpOxPGOsI" name="v3.1">
        <mxGraphModel dx="832" dy="515" grid="1" gridSize="10" guides="1" tooltips="1" connect="1" arrows="1" fold="1" page="1" pageScale="1" pageWidth="1169" pageHeight="827" math="0" shadow="0">
            <root>
                <mxCell id="0"/>
                <mxCell id="1" parent="0"/>
                <mxCell id="lrUeIBs1f4Efto13RoZZ-1" value="" style="edgeStyle=none;html=1;fontSize=10;endArrow=none;endFill=0;" parent="1" source="lrUeIBs1f4Efto13RoZZ-4" target="lrUeIBs1f4Efto13RoZZ-18" edge="1">
                    <mxGeometry relative="1" as="geometry"/>
                </mxCell>
                <mxCell id="lrUeIBs1f4Efto13RoZZ-2" value="" style="edgeStyle=none;html=1;fontSize=10;endArrow=none;endFill=0;" parent="1" source="lrUeIBs1f4Efto13RoZZ-4" target="lrUeIBs1f4Efto13RoZZ-19" edge="1">
                    <mxGeometry relative="1" as="geometry"/>
                </mxCell>
                <mxCell id="lrUeIBs1f4Efto13RoZZ-3" style="edgeStyle=orthogonalEdgeStyle;rounded=0;html=1;exitX=0.25;exitY=0;exitDx=0;exitDy=0;endArrow=none;endFill=0;" parent="1" source="lrUeIBs1f4Efto13RoZZ-4" target="lrUeIBs1f4Efto13RoZZ-53" edge="1">
                    <mxGeometry relative="1" as="geometry"/>
                </mxCell>
                <mxCell id="lrUeIBs1f4Efto13RoZZ-4" value="Paciente" style="rounded=0;whiteSpace=wrap;html=1;fontSize=10;" parent="1" vertex="1">
                    <mxGeometry x="400" y="360" width="80" height="40" as="geometry"/>
                </mxCell>
                <mxCell id="lrUeIBs1f4Efto13RoZZ-5" style="edgeStyle=none;html=1;entryX=0.5;entryY=0;entryDx=0;entryDy=0;fontSize=10;endArrow=none;endFill=0;exitX=0.5;exitY=1;exitDx=0;exitDy=0;" parent="1" source="lrUeIBs1f4Efto13RoZZ-7" target="lrUeIBs1f4Efto13RoZZ-10" edge="1">
                    <mxGeometry relative="1" as="geometry"/>
                </mxCell>
                <mxCell id="lrUeIBs1f4Efto13RoZZ-6" value="" style="edgeStyle=none;html=1;fontSize=10;endArrow=none;endFill=0;" parent="1" source="lrUeIBs1f4Efto13RoZZ-7" target="lrUeIBs1f4Efto13RoZZ-4" edge="1">
                    <mxGeometry relative="1" as="geometry"/>
                </mxCell>
                <mxCell id="lrUeIBs1f4Efto13RoZZ-7" value="Vínculo" style="shape=associativeEntity;whiteSpace=wrap;html=1;align=center;fontSize=10;" parent="1" vertex="1">
                    <mxGeometry x="160" y="360" width="80" height="40" as="geometry"/>
                </mxCell>
                <mxCell id="lrUeIBs1f4Efto13RoZZ-8" value="" style="edgeStyle=orthogonalEdgeStyle;rounded=0;html=1;endArrow=none;endFill=0;" parent="1" source="lrUeIBs1f4Efto13RoZZ-10" target="lrUeIBs1f4Efto13RoZZ-44" edge="1">
                    <mxGeometry relative="1" as="geometry"/>
                </mxCell>
                <mxCell id="lrUeIBs1f4Efto13RoZZ-9" style="edgeStyle=orthogonalEdgeStyle;rounded=0;html=1;exitX=0.75;exitY=0;exitDx=0;exitDy=0;entryX=0;entryY=0.5;entryDx=0;entryDy=0;endArrow=none;endFill=0;" parent="1" source="lrUeIBs1f4Efto13RoZZ-10" target="lrUeIBs1f4Efto13RoZZ-42" edge="1">
                    <mxGeometry relative="1" as="geometry"/>
                </mxCell>
                <mxCell id="lrUeIBs1f4Efto13RoZZ-10" value="Responsável" style="rounded=0;whiteSpace=wrap;html=1;fontSize=10;" parent="1" vertex="1">
                    <mxGeometry x="160" y="520" width="80" height="40" as="geometry"/>
                </mxCell>
                <mxCell id="lrUeIBs1f4Efto13RoZZ-11" value="" style="edgeStyle=none;html=1;fontSize=10;endArrow=none;endFill=0;" parent="1" source="lrUeIBs1f4Efto13RoZZ-12" target="lrUeIBs1f4Efto13RoZZ-18" edge="1">
                    <mxGeometry relative="1" as="geometry"/>
                </mxCell>
                <mxCell id="lrUeIBs1f4Efto13RoZZ-12" value="Documento" style="rounded=0;whiteSpace=wrap;html=1;fontSize=10;" parent="1" vertex="1">
                    <mxGeometry x="640" y="360" width="80" height="40" as="geometry"/>
                </mxCell>
                <mxCell id="lrUeIBs1f4Efto13RoZZ-13" value="" style="edgeStyle=none;html=1;fontSize=10;endArrow=none;endFill=0;" parent="1" source="lrUeIBs1f4Efto13RoZZ-14" target="lrUeIBs1f4Efto13RoZZ-20" edge="1">
                    <mxGeometry relative="1" as="geometry"/>
                </mxCell>
                <mxCell id="lrUeIBs1f4Efto13RoZZ-14" value="Colaborador" style="rounded=0;whiteSpace=wrap;html=1;fontSize=10;" parent="1" vertex="1">
                    <mxGeometry x="640" y="200" width="80" height="40" as="geometry"/>
                </mxCell>
                <mxCell id="lrUeIBs1f4Efto13RoZZ-15" value="" style="edgeStyle=none;html=1;fontSize=10;endArrow=none;endFill=0;" parent="1" source="lrUeIBs1f4Efto13RoZZ-17" target="lrUeIBs1f4Efto13RoZZ-19" edge="1">
                    <mxGeometry relative="1" as="geometry"/>
                </mxCell>
                <mxCell id="lrUeIBs1f4Efto13RoZZ-16" value="" style="edgeStyle=none;html=1;fontSize=10;endArrow=none;endFill=0;" parent="1" source="lrUeIBs1f4Efto13RoZZ-17" target="lrUeIBs1f4Efto13RoZZ-20" edge="1">
                    <mxGeometry relative="1" as="geometry"/>
                </mxCell>
                <mxCell id="lrUeIBs1f4Efto13RoZZ-17" value="Avaliação" style="rounded=0;whiteSpace=wrap;html=1;fontSize=10;" parent="1" vertex="1">
                    <mxGeometry x="400" y="200" width="80" height="40" as="geometry"/>
                </mxCell>
                <mxCell id="lrUeIBs1f4Efto13RoZZ-18" value="Possui" style="rhombus;whiteSpace=wrap;html=1;fontSize=10;" parent="1" vertex="1">
                    <mxGeometry x="520" y="360" width="80" height="40" as="geometry"/>
                </mxCell>
                <mxCell id="lrUeIBs1f4Efto13RoZZ-19" value="Avalia" style="rhombus;whiteSpace=wrap;html=1;fontSize=10;" parent="1" vertex="1">
                    <mxGeometry x="400" y="280" width="80" height="40" as="geometry"/>
                </mxCell>
                <mxCell id="lrUeIBs1f4Efto13RoZZ-20" value="Realiza" style="rhombus;whiteSpace=wrap;html=1;fontSize=10;" parent="1" vertex="1">
                    <mxGeometry x="520" y="200" width="80" height="40" as="geometry"/>
                </mxCell>
                <mxCell id="lrUeIBs1f4Efto13RoZZ-21" value="" style="edgeStyle=none;html=1;fontSize=10;endArrow=none;endFill=0;" parent="1" source="lrUeIBs1f4Efto13RoZZ-23" target="lrUeIBs1f4Efto13RoZZ-14" edge="1">
                    <mxGeometry relative="1" as="geometry"/>
                </mxCell>
                <mxCell id="lrUeIBs1f4Efto13RoZZ-22" value="" style="edgeStyle=none;html=1;fontSize=10;endArrow=none;endFill=0;" parent="1" source="lrUeIBs1f4Efto13RoZZ-23" target="lrUeIBs1f4Efto13RoZZ-12" edge="1">
                    <mxGeometry relative="1" as="geometry"/>
                </mxCell>
                <mxCell id="lrUeIBs1f4Efto13RoZZ-23" value="Anexa" style="rhombus;whiteSpace=wrap;html=1;fontSize=10;" parent="1" vertex="1">
                    <mxGeometry x="640" y="280" width="80" height="40" as="geometry"/>
                </mxCell>
                <mxCell id="lrUeIBs1f4Efto13RoZZ-24" style="edgeStyle=orthogonalEdgeStyle;rounded=0;html=1;endArrow=none;endFill=0;entryX=0.5;entryY=0;entryDx=0;entryDy=0;exitX=1;exitY=0.5;exitDx=0;exitDy=0;" parent="1" source="lrUeIBs1f4Efto13RoZZ-25" target="lrUeIBs1f4Efto13RoZZ-14" edge="1">
                    <mxGeometry relative="1" as="geometry">
                        <mxPoint x="680" y="190" as="targetPoint"/>
                        <Array as="points">
                            <mxPoint x="680" y="60"/>
                        </Array>
                    </mxGeometry>
                </mxCell>
                <mxCell id="lrUeIBs1f4Efto13RoZZ-25" value="Agenda" style="rhombus;whiteSpace=wrap;html=1;fontSize=10;" parent="1" vertex="1">
                    <mxGeometry x="520" y="40" width="80" height="40" as="geometry"/>
                </mxCell>
                <mxCell id="lrUeIBs1f4Efto13RoZZ-26" style="edgeStyle=orthogonalEdgeStyle;rounded=0;html=1;endArrow=none;endFill=0;" parent="1" source="lrUeIBs1f4Efto13RoZZ-27" edge="1">
                    <mxGeometry relative="1" as="geometry">
                        <mxPoint x="660" y="200" as="targetPoint"/>
                        <Array as="points">
                            <mxPoint x="660" y="140"/>
                        </Array>
                    </mxGeometry>
                </mxCell>
                <mxCell id="lrUeIBs1f4Efto13RoZZ-27" value="Conduz" style="rhombus;whiteSpace=wrap;html=1;fontSize=10;" parent="1" vertex="1">
                    <mxGeometry x="520" y="120" width="80" height="40" as="geometry"/>
                </mxCell>
                <mxCell id="lrUeIBs1f4Efto13RoZZ-28" style="edgeStyle=elbowEdgeStyle;rounded=0;html=1;exitX=0.5;exitY=1;exitDx=0;exitDy=0;entryX=0;entryY=0.5;entryDx=0;entryDy=0;endArrow=none;endFill=0;" parent="1" source="lrUeIBs1f4Efto13RoZZ-30" target="lrUeIBs1f4Efto13RoZZ-10" edge="1">
                    <mxGeometry relative="1" as="geometry">
                        <Array as="points">
                            <mxPoint x="80" y="470"/>
                        </Array>
                    </mxGeometry>
                </mxCell>
                <mxCell id="lrUeIBs1f4Efto13RoZZ-29" style="edgeStyle=elbowEdgeStyle;rounded=0;html=1;entryX=0;entryY=0.5;entryDx=0;entryDy=0;endArrow=none;endFill=0;" parent="1" source="lrUeIBs1f4Efto13RoZZ-30" target="lrUeIBs1f4Efto13RoZZ-50" edge="1">
                    <mxGeometry relative="1" as="geometry">
                        <Array as="points">
                            <mxPoint x="80" y="310"/>
                        </Array>
                    </mxGeometry>
                </mxCell>
                <mxCell id="lrUeIBs1f4Efto13RoZZ-30" value="Confirma" style="rhombus;whiteSpace=wrap;html=1;fontSize=10;" parent="1" vertex="1">
                    <mxGeometry x="40" y="360" width="80" height="40" as="geometry"/>
                </mxCell>
                <mxCell id="lrUeIBs1f4Efto13RoZZ-31" style="edgeStyle=orthogonalEdgeStyle;html=1;exitX=0.5;exitY=1;exitDx=0;exitDy=0;entryX=0.5;entryY=0;entryDx=0;entryDy=0;fontSize=16;endArrow=none;endFill=0;rounded=0;" parent="1" source="lrUeIBs1f4Efto13RoZZ-4" target="lrUeIBs1f4Efto13RoZZ-73" edge="1">
                    <mxGeometry relative="1" as="geometry"/>
                </mxCell>
                <mxCell id="lrUeIBs1f4Efto13RoZZ-32" value="Pagamento" style="rounded=0;whiteSpace=wrap;html=1;fontSize=10;" parent="1" vertex="1">
                    <mxGeometry x="360" y="440" width="80" height="40" as="geometry"/>
                </mxCell>
                <mxCell id="lrUeIBs1f4Efto13RoZZ-33" value="(0, n)" style="text;html=1;strokeColor=none;fillColor=none;align=center;verticalAlign=middle;whiteSpace=wrap;rounded=0;fontSize=10;" parent="1" vertex="1">
                    <mxGeometry x="440" y="240" width="40" height="20" as="geometry"/>
                </mxCell>
                <mxCell id="lrUeIBs1f4Efto13RoZZ-34" value="(1, 1)" style="text;html=1;strokeColor=none;fillColor=none;align=center;verticalAlign=middle;whiteSpace=wrap;rounded=0;fontSize=10;" parent="1" vertex="1">
                    <mxGeometry x="440" y="340" width="40" height="20" as="geometry"/>
                </mxCell>
                <mxCell id="lrUeIBs1f4Efto13RoZZ-35" value="(1, 1)" style="text;html=1;strokeColor=none;fillColor=none;align=center;verticalAlign=middle;whiteSpace=wrap;rounded=0;fontSize=10;" parent="1" vertex="1">
                    <mxGeometry x="600" y="220" width="40" height="20" as="geometry"/>
                </mxCell>
                <mxCell id="lrUeIBs1f4Efto13RoZZ-36" value="(0, n)" style="text;html=1;strokeColor=none;fillColor=none;align=center;verticalAlign=middle;whiteSpace=wrap;rounded=0;fontSize=10;" parent="1" vertex="1">
                    <mxGeometry x="480" y="220" width="40" height="20" as="geometry"/>
                </mxCell>
                <mxCell id="lrUeIBs1f4Efto13RoZZ-37" value="(0, n)" style="text;html=1;strokeColor=none;fillColor=none;align=center;verticalAlign=middle;whiteSpace=wrap;rounded=0;fontSize=10;" parent="1" vertex="1">
                    <mxGeometry x="600" y="380" width="40" height="20" as="geometry"/>
                </mxCell>
                <mxCell id="lrUeIBs1f4Efto13RoZZ-38" value="(1, 1)" style="text;html=1;strokeColor=none;fillColor=none;align=center;verticalAlign=middle;whiteSpace=wrap;rounded=0;fontSize=10;" parent="1" vertex="1">
                    <mxGeometry x="480" y="380" width="40" height="20" as="geometry"/>
                </mxCell>
                <mxCell id="lrUeIBs1f4Efto13RoZZ-39" value="(0, n)" style="text;html=1;strokeColor=none;fillColor=none;align=center;verticalAlign=middle;whiteSpace=wrap;rounded=0;fontSize=10;" parent="1" vertex="1">
                    <mxGeometry x="680" y="340" width="40" height="20" as="geometry"/>
                </mxCell>
                <mxCell id="lrUeIBs1f4Efto13RoZZ-40" value="(1, 1)" style="text;html=1;strokeColor=none;fillColor=none;align=center;verticalAlign=middle;whiteSpace=wrap;rounded=0;fontSize=10;" parent="1" vertex="1">
                    <mxGeometry x="680" y="240" width="40" height="20" as="geometry"/>
                </mxCell>
                <mxCell id="lrUeIBs1f4Efto13RoZZ-41" value="" style="edgeStyle=none;html=1;endArrow=none;endFill=0;" parent="1" source="lrUeIBs1f4Efto13RoZZ-42" target="lrUeIBs1f4Efto13RoZZ-32" edge="1">
                    <mxGeometry relative="1" as="geometry"/>
                </mxCell>
                <mxCell id="lrUeIBs1f4Efto13RoZZ-42" value="Faz" style="rhombus;whiteSpace=wrap;html=1;fontSize=10;" parent="1" vertex="1">
                    <mxGeometry x="240" y="440" width="80" height="40" as="geometry"/>
                </mxCell>
                <mxCell id="lrUeIBs1f4Efto13RoZZ-43" value="" style="edgeStyle=none;html=1;endArrow=none;endFill=0;" parent="1" source="lrUeIBs1f4Efto13RoZZ-44" target="lrUeIBs1f4Efto13RoZZ-46" edge="1">
                    <mxGeometry relative="1" as="geometry"/>
                </mxCell>
                <mxCell id="lrUeIBs1f4Efto13RoZZ-44" value="Assina" style="rhombus;whiteSpace=wrap;html=1;fontSize=10;" parent="1" vertex="1">
                    <mxGeometry x="320" y="520" width="80" height="40" as="geometry"/>
                </mxCell>
                <mxCell id="lrUeIBs1f4Efto13RoZZ-45" value="" style="edgeStyle=none;rounded=0;html=1;endArrow=none;endFill=0;" parent="1" source="lrUeIBs1f4Efto13RoZZ-46" target="lrUeIBs1f4Efto13RoZZ-52" edge="1">
                    <mxGeometry relative="1" as="geometry"/>
                </mxCell>
                <mxCell id="lrUeIBs1f4Efto13RoZZ-46" value="Contrato" style="rounded=0;whiteSpace=wrap;html=1;fontSize=10;" parent="1" vertex="1">
                    <mxGeometry x="480" y="520" width="80" height="40" as="geometry"/>
                </mxCell>
                <mxCell id="lrUeIBs1f4Efto13RoZZ-47" style="edgeStyle=elbowEdgeStyle;rounded=0;html=1;entryX=0;entryY=0.5;entryDx=0;entryDy=0;endArrow=none;endFill=0;" parent="1" source="lrUeIBs1f4Efto13RoZZ-50" target="lrUeIBs1f4Efto13RoZZ-25" edge="1">
                    <mxGeometry relative="1" as="geometry">
                        <Array as="points">
                            <mxPoint x="300" y="210"/>
                            <mxPoint x="280" y="150"/>
                            <mxPoint x="300" y="140"/>
                            <mxPoint x="280" y="230"/>
                            <mxPoint x="260" y="230"/>
                            <mxPoint x="280" y="170"/>
                        </Array>
                    </mxGeometry>
                </mxCell>
                <mxCell id="lrUeIBs1f4Efto13RoZZ-48" style="edgeStyle=elbowEdgeStyle;rounded=0;html=1;entryX=0;entryY=0.5;entryDx=0;entryDy=0;endArrow=none;endFill=0;" parent="1" source="lrUeIBs1f4Efto13RoZZ-50" target="lrUeIBs1f4Efto13RoZZ-27" edge="1">
                    <mxGeometry relative="1" as="geometry">
                        <Array as="points">
                            <mxPoint x="320" y="220"/>
                            <mxPoint x="320" y="230"/>
                            <mxPoint x="260" y="210"/>
                            <mxPoint x="320" y="190"/>
                        </Array>
                    </mxGeometry>
                </mxCell>
                <mxCell id="lrUeIBs1f4Efto13RoZZ-49" style="edgeStyle=orthogonalEdgeStyle;rounded=0;html=1;exitX=0.75;exitY=1;exitDx=0;exitDy=0;entryX=0.5;entryY=0;entryDx=0;entryDy=0;endArrow=none;endFill=0;" parent="1" source="lrUeIBs1f4Efto13RoZZ-50" target="lrUeIBs1f4Efto13RoZZ-53" edge="1">
                    <mxGeometry relative="1" as="geometry"/>
                </mxCell>
                <mxCell id="lrUeIBs1f4Efto13RoZZ-50" value="Agendamento" style="rounded=0;whiteSpace=wrap;html=1;fontSize=10;" parent="1" vertex="1">
                    <mxGeometry x="160" y="200" width="80" height="40" as="geometry"/>
                </mxCell>
                <mxCell id="lrUeIBs1f4Efto13RoZZ-51" value="" style="edgeStyle=none;rounded=0;html=1;endArrow=none;endFill=0;entryX=0.5;entryY=1;entryDx=0;entryDy=0;" parent="1" source="lrUeIBs1f4Efto13RoZZ-52" target="lrUeIBs1f4Efto13RoZZ-12" edge="1">
                    <mxGeometry relative="1" as="geometry"/>
                </mxCell>
                <mxCell id="lrUeIBs1f4Efto13RoZZ-52" value="Possui" style="rhombus;whiteSpace=wrap;html=1;fontSize=10;" parent="1" vertex="1">
                    <mxGeometry x="640" y="520" width="80" height="40" as="geometry"/>
                </mxCell>
                <mxCell id="lrUeIBs1f4Efto13RoZZ-53" value="Comparece" style="rhombus;whiteSpace=wrap;html=1;fontSize=10;" parent="1" vertex="1">
                    <mxGeometry x="280" y="280" width="80" height="40" as="geometry"/>
                </mxCell>
                <mxCell id="lrUeIBs1f4Efto13RoZZ-54" value="(1, 1)" style="text;html=1;strokeColor=none;fillColor=none;align=center;verticalAlign=middle;whiteSpace=wrap;rounded=0;fontSize=10;" parent="1" vertex="1">
                    <mxGeometry x="360" y="380" width="40" height="20" as="geometry"/>
                </mxCell>
                <mxCell id="lrUeIBs1f4Efto13RoZZ-55" value="(2, n)" style="text;html=1;strokeColor=none;fillColor=none;align=center;verticalAlign=middle;whiteSpace=wrap;rounded=0;fontSize=10;" parent="1" vertex="1">
                    <mxGeometry x="240" y="380" width="40" height="20" as="geometry"/>
                </mxCell>
                <mxCell id="lrUeIBs1f4Efto13RoZZ-56" value="(1, 1)" style="text;html=1;strokeColor=none;fillColor=none;align=center;verticalAlign=middle;whiteSpace=wrap;rounded=0;fontSize=10;" parent="1" vertex="1">
                    <mxGeometry x="160" y="500" width="40" height="20" as="geometry"/>
                </mxCell>
                <mxCell id="lrUeIBs1f4Efto13RoZZ-57" value="(1, n)" style="text;html=1;strokeColor=none;fillColor=none;align=center;verticalAlign=middle;whiteSpace=wrap;rounded=0;fontSize=10;" parent="1" vertex="1">
                    <mxGeometry x="160" y="400" width="40" height="20" as="geometry"/>
                </mxCell>
                <mxCell id="lrUeIBs1f4Efto13RoZZ-58" value="(0, n)" style="text;html=1;strokeColor=none;fillColor=none;align=center;verticalAlign=middle;whiteSpace=wrap;rounded=0;fontSize=10;" parent="1" vertex="1">
                    <mxGeometry x="120" y="220" width="40" height="20" as="geometry"/>
                </mxCell>
                <mxCell id="lrUeIBs1f4Efto13RoZZ-59" value="(1, 1)" style="text;html=1;strokeColor=none;fillColor=none;align=center;verticalAlign=middle;whiteSpace=wrap;rounded=0;fontSize=10;" parent="1" vertex="1">
                    <mxGeometry x="120" y="540" width="40" height="20" as="geometry"/>
                </mxCell>
                <mxCell id="lrUeIBs1f4Efto13RoZZ-60" value="(1, 1)" style="text;html=1;strokeColor=none;fillColor=none;align=center;verticalAlign=middle;whiteSpace=wrap;rounded=0;fontSize=10;" parent="1" vertex="1">
                    <mxGeometry x="240" y="540" width="40" height="20" as="geometry"/>
                </mxCell>
                <mxCell id="lrUeIBs1f4Efto13RoZZ-61" value="(0, n)" style="text;html=1;strokeColor=none;fillColor=none;align=center;verticalAlign=middle;whiteSpace=wrap;rounded=0;fontSize=10;" parent="1" vertex="1">
                    <mxGeometry x="320" y="460" width="40" height="20" as="geometry"/>
                </mxCell>
                <mxCell id="lrUeIBs1f4Efto13RoZZ-62" value="(0, n)" style="text;html=1;strokeColor=none;fillColor=none;align=center;verticalAlign=middle;whiteSpace=wrap;rounded=0;fontSize=10;" parent="1" vertex="1">
                    <mxGeometry x="440" y="540" width="40" height="20" as="geometry"/>
                </mxCell>
                <mxCell id="lrUeIBs1f4Efto13RoZZ-63" value="(1, 1)" style="text;html=1;strokeColor=none;fillColor=none;align=center;verticalAlign=middle;whiteSpace=wrap;rounded=0;fontSize=10;" parent="1" vertex="1">
                    <mxGeometry x="220" y="500" width="40" height="20" as="geometry"/>
                </mxCell>
                <mxCell id="lrUeIBs1f4Efto13RoZZ-64" value="(0, 1)" style="text;html=1;strokeColor=none;fillColor=none;align=center;verticalAlign=middle;whiteSpace=wrap;rounded=0;fontSize=10;" parent="1" vertex="1">
                    <mxGeometry x="560" y="540" width="40" height="20" as="geometry"/>
                </mxCell>
                <mxCell id="lrUeIBs1f4Efto13RoZZ-65" value="(1, 1)" style="text;html=1;strokeColor=none;fillColor=none;align=center;verticalAlign=middle;whiteSpace=wrap;rounded=0;fontSize=10;" parent="1" vertex="1">
                    <mxGeometry x="680" y="400" width="40" height="20" as="geometry"/>
                </mxCell>
                <mxCell id="lrUeIBs1f4Efto13RoZZ-66" value="(1, 1)" style="text;html=1;strokeColor=none;fillColor=none;align=center;verticalAlign=middle;whiteSpace=wrap;rounded=0;fontSize=10;" parent="1" vertex="1">
                    <mxGeometry x="680" y="180" width="40" height="20" as="geometry"/>
                </mxCell>
                <mxCell id="lrUeIBs1f4Efto13RoZZ-67" value="(1, 1)" style="text;html=1;strokeColor=none;fillColor=none;align=center;verticalAlign=middle;whiteSpace=wrap;rounded=0;fontSize=10;" parent="1" vertex="1">
                    <mxGeometry x="620" y="180" width="40" height="20" as="geometry"/>
                </mxCell>
                <mxCell id="lrUeIBs1f4Efto13RoZZ-68" value="(0, n)" style="text;html=1;strokeColor=none;fillColor=none;align=center;verticalAlign=middle;whiteSpace=wrap;rounded=0;fontSize=10;" parent="1" vertex="1">
                    <mxGeometry x="240" y="190" width="40" height="20" as="geometry"/>
                </mxCell>
                <mxCell id="lrUeIBs1f4Efto13RoZZ-69" value="(0, n)" style="text;html=1;strokeColor=none;fillColor=none;align=center;verticalAlign=middle;whiteSpace=wrap;rounded=0;fontSize=10;" parent="1" vertex="1">
                    <mxGeometry x="240" y="220" width="40" height="20" as="geometry"/>
                </mxCell>
                <mxCell id="lrUeIBs1f4Efto13RoZZ-70" value="(0, n)" style="text;html=1;strokeColor=none;fillColor=none;align=center;verticalAlign=middle;whiteSpace=wrap;rounded=0;fontSize=10;" parent="1" vertex="1">
                    <mxGeometry x="180" y="240" width="40" height="20" as="geometry"/>
                </mxCell>
                <mxCell id="lrUeIBs1f4Efto13RoZZ-71" value="(1, 1)" style="text;html=1;strokeColor=none;fillColor=none;align=center;verticalAlign=middle;whiteSpace=wrap;rounded=0;fontSize=10;" parent="1" vertex="1">
                    <mxGeometry x="380" y="340" width="40" height="20" as="geometry"/>
                </mxCell>
                <mxCell id="lrUeIBs1f4Efto13RoZZ-72" style="edgeStyle=none;html=1;entryX=0.5;entryY=0;entryDx=0;entryDy=0;endArrow=none;endFill=0;" parent="1" source="lrUeIBs1f4Efto13RoZZ-73" target="lrUeIBs1f4Efto13RoZZ-46" edge="1">
                    <mxGeometry relative="1" as="geometry"/>
                </mxCell>
                <mxCell id="lrUeIBs1f4Efto13RoZZ-73" value="Tem" style="rhombus;whiteSpace=wrap;html=1;fontSize=10;" parent="1" vertex="1">
                    <mxGeometry x="480" y="440" width="80" height="40" as="geometry"/>
                </mxCell>
                <mxCell id="lrUeIBs1f4Efto13RoZZ-74" value="(0, n)" style="text;html=1;strokeColor=none;fillColor=none;align=center;verticalAlign=middle;whiteSpace=wrap;rounded=0;fontSize=10;" parent="1" vertex="1">
                    <mxGeometry x="520" y="500" width="40" height="20" as="geometry"/>
                </mxCell>
                <mxCell id="lrUeIBs1f4Efto13RoZZ-75" value="(1, 1)" style="text;html=1;strokeColor=none;fillColor=none;align=center;verticalAlign=middle;whiteSpace=wrap;rounded=0;fontSize=10;" parent="1" vertex="1">
                    <mxGeometry x="440" y="400" width="40" height="20" as="geometry"/>
                </mxCell>
                <mxCell id="lrUeIBs1f4Efto13RoZZ-76" value="Mudanças desde a versão 3.0:&lt;br&gt;&lt;br&gt;- ADD: Relacionamento entre &quot;Paciente&quot; e &quot;Contrato&quot;&lt;br&gt;- MOD: Entitade &quot;Profissional&quot; renomeada para &quot;Colaborador&quot;&lt;br&gt;- DEL: Relacionamento entre &quot;Avaliação&quot; e &quot;Documento&quot;" style="shape=note;whiteSpace=wrap;html=1;backgroundOutline=1;darkOpacity=0.05;size=20;align=left;" parent="1" vertex="1">
                    <mxGeometry x="40" y="40" width="200" height="120" as="geometry"/>
                </mxCell>
            </root>
        </mxGraphModel>
    </diagram>
    <diagram id="DuGvMcO2x_ZcrIoSkWqw" name="v3.0">
        <mxGraphModel dx="832" dy="513" grid="1" gridSize="10" guides="1" tooltips="1" connect="1" arrows="1" fold="1" page="1" pageScale="1" pageWidth="1169" pageHeight="827" math="0" shadow="0">
            <root>
                <mxCell id="0"/>
                <mxCell id="1" parent="0"/>
                <mxCell id="nSq_64oVjTlqSjhpIV73-1" value="" style="edgeStyle=none;html=1;fontSize=10;endArrow=none;endFill=0;" parent="1" source="nSq_64oVjTlqSjhpIV73-4" target="nSq_64oVjTlqSjhpIV73-18" edge="1">
                    <mxGeometry relative="1" as="geometry"/>
                </mxCell>
                <mxCell id="nSq_64oVjTlqSjhpIV73-2" value="" style="edgeStyle=none;html=1;fontSize=10;endArrow=none;endFill=0;" parent="1" source="nSq_64oVjTlqSjhpIV73-4" target="nSq_64oVjTlqSjhpIV73-19" edge="1">
                    <mxGeometry relative="1" as="geometry"/>
                </mxCell>
                <mxCell id="nSq_64oVjTlqSjhpIV73-3" style="edgeStyle=orthogonalEdgeStyle;rounded=0;html=1;exitX=0.25;exitY=0;exitDx=0;exitDy=0;endArrow=none;endFill=0;" parent="1" source="nSq_64oVjTlqSjhpIV73-4" target="nSq_64oVjTlqSjhpIV73-55" edge="1">
                    <mxGeometry relative="1" as="geometry"/>
                </mxCell>
                <mxCell id="nSq_64oVjTlqSjhpIV73-4" value="Paciente" style="rounded=0;whiteSpace=wrap;html=1;fontSize=10;" parent="1" vertex="1">
                    <mxGeometry x="400" y="320" width="80" height="40" as="geometry"/>
                </mxCell>
                <mxCell id="nSq_64oVjTlqSjhpIV73-5" style="edgeStyle=none;html=1;entryX=0.5;entryY=0;entryDx=0;entryDy=0;fontSize=10;endArrow=none;endFill=0;exitX=0.5;exitY=1;exitDx=0;exitDy=0;" parent="1" source="nSq_64oVjTlqSjhpIV73-7" target="nSq_64oVjTlqSjhpIV73-10" edge="1">
                    <mxGeometry relative="1" as="geometry"/>
                </mxCell>
                <mxCell id="nSq_64oVjTlqSjhpIV73-6" value="" style="edgeStyle=none;html=1;fontSize=10;endArrow=none;endFill=0;" parent="1" source="nSq_64oVjTlqSjhpIV73-7" target="nSq_64oVjTlqSjhpIV73-4" edge="1">
                    <mxGeometry relative="1" as="geometry"/>
                </mxCell>
                <mxCell id="nSq_64oVjTlqSjhpIV73-7" value="Vínculo" style="shape=associativeEntity;whiteSpace=wrap;html=1;align=center;fontSize=10;" parent="1" vertex="1">
                    <mxGeometry x="160" y="320" width="80" height="40" as="geometry"/>
                </mxCell>
                <mxCell id="nSq_64oVjTlqSjhpIV73-8" value="" style="edgeStyle=orthogonalEdgeStyle;rounded=0;html=1;endArrow=none;endFill=0;" parent="1" source="nSq_64oVjTlqSjhpIV73-10" target="nSq_64oVjTlqSjhpIV73-43" edge="1">
                    <mxGeometry relative="1" as="geometry"/>
                </mxCell>
                <mxCell id="nSq_64oVjTlqSjhpIV73-9" style="edgeStyle=orthogonalEdgeStyle;rounded=0;html=1;exitX=0.75;exitY=0;exitDx=0;exitDy=0;entryX=0;entryY=0.5;entryDx=0;entryDy=0;endArrow=none;endFill=0;" parent="1" source="nSq_64oVjTlqSjhpIV73-10" target="nSq_64oVjTlqSjhpIV73-41" edge="1">
                    <mxGeometry relative="1" as="geometry"/>
                </mxCell>
                <mxCell id="nSq_64oVjTlqSjhpIV73-10" value="Responsável" style="rounded=0;whiteSpace=wrap;html=1;fontSize=10;" parent="1" vertex="1">
                    <mxGeometry x="160" y="480" width="80" height="40" as="geometry"/>
                </mxCell>
                <mxCell id="nSq_64oVjTlqSjhpIV73-11" value="" style="edgeStyle=none;html=1;fontSize=10;endArrow=none;endFill=0;" parent="1" source="nSq_64oVjTlqSjhpIV73-12" target="nSq_64oVjTlqSjhpIV73-18" edge="1">
                    <mxGeometry relative="1" as="geometry"/>
                </mxCell>
                <mxCell id="nSq_64oVjTlqSjhpIV73-12" value="Documento" style="rounded=0;whiteSpace=wrap;html=1;fontSize=10;" parent="1" vertex="1">
                    <mxGeometry x="640" y="320" width="80" height="40" as="geometry"/>
                </mxCell>
                <mxCell id="nSq_64oVjTlqSjhpIV73-13" value="" style="edgeStyle=none;html=1;fontSize=10;endArrow=none;endFill=0;" parent="1" source="nSq_64oVjTlqSjhpIV73-14" target="nSq_64oVjTlqSjhpIV73-20" edge="1">
                    <mxGeometry relative="1" as="geometry"/>
                </mxCell>
                <mxCell id="nSq_64oVjTlqSjhpIV73-14" value="Profissional" style="rounded=0;whiteSpace=wrap;html=1;fontSize=10;" parent="1" vertex="1">
                    <mxGeometry x="640" y="160" width="80" height="40" as="geometry"/>
                </mxCell>
                <mxCell id="nSq_64oVjTlqSjhpIV73-15" value="" style="edgeStyle=none;html=1;fontSize=10;endArrow=none;endFill=0;" parent="1" source="nSq_64oVjTlqSjhpIV73-17" target="nSq_64oVjTlqSjhpIV73-19" edge="1">
                    <mxGeometry relative="1" as="geometry"/>
                </mxCell>
                <mxCell id="nSq_64oVjTlqSjhpIV73-16" value="" style="edgeStyle=none;html=1;fontSize=10;endArrow=none;endFill=0;" parent="1" source="nSq_64oVjTlqSjhpIV73-17" target="nSq_64oVjTlqSjhpIV73-20" edge="1">
                    <mxGeometry relative="1" as="geometry"/>
                </mxCell>
                <mxCell id="nSq_64oVjTlqSjhpIV73-17" value="Avaliação" style="rounded=0;whiteSpace=wrap;html=1;fontSize=10;" parent="1" vertex="1">
                    <mxGeometry x="400" y="160" width="80" height="40" as="geometry"/>
                </mxCell>
                <mxCell id="nSq_64oVjTlqSjhpIV73-18" value="Possui" style="rhombus;whiteSpace=wrap;html=1;fontSize=10;" parent="1" vertex="1">
                    <mxGeometry x="520" y="320" width="80" height="40" as="geometry"/>
                </mxCell>
                <mxCell id="nSq_64oVjTlqSjhpIV73-19" value="Avalia" style="rhombus;whiteSpace=wrap;html=1;fontSize=10;" parent="1" vertex="1">
                    <mxGeometry x="400" y="240" width="80" height="40" as="geometry"/>
                </mxCell>
                <mxCell id="nSq_64oVjTlqSjhpIV73-20" value="Realiza" style="rhombus;whiteSpace=wrap;html=1;fontSize=10;" parent="1" vertex="1">
                    <mxGeometry x="520" y="160" width="80" height="40" as="geometry"/>
                </mxCell>
                <mxCell id="nSq_64oVjTlqSjhpIV73-21" value="" style="edgeStyle=none;html=1;fontSize=10;endArrow=none;endFill=0;" parent="1" source="nSq_64oVjTlqSjhpIV73-23" target="nSq_64oVjTlqSjhpIV73-14" edge="1">
                    <mxGeometry relative="1" as="geometry"/>
                </mxCell>
                <mxCell id="nSq_64oVjTlqSjhpIV73-22" value="" style="edgeStyle=none;html=1;fontSize=10;endArrow=none;endFill=0;" parent="1" source="nSq_64oVjTlqSjhpIV73-23" target="nSq_64oVjTlqSjhpIV73-12" edge="1">
                    <mxGeometry relative="1" as="geometry"/>
                </mxCell>
                <mxCell id="nSq_64oVjTlqSjhpIV73-23" value="Anexa" style="rhombus;whiteSpace=wrap;html=1;fontSize=10;" parent="1" vertex="1">
                    <mxGeometry x="640" y="240" width="80" height="40" as="geometry"/>
                </mxCell>
                <mxCell id="nSq_64oVjTlqSjhpIV73-24" style="edgeStyle=orthogonalEdgeStyle;rounded=0;html=1;endArrow=none;endFill=0;entryX=0.75;entryY=0;entryDx=0;entryDy=0;exitX=0.5;exitY=1;exitDx=0;exitDy=0;" parent="1" source="nSq_64oVjTlqSjhpIV73-25" target="nSq_64oVjTlqSjhpIV73-14" edge="1">
                    <mxGeometry relative="1" as="geometry">
                        <mxPoint x="680" y="150" as="targetPoint"/>
                        <Array as="points">
                            <mxPoint x="710" y="160"/>
                        </Array>
                    </mxGeometry>
                </mxCell>
                <mxCell id="nSq_64oVjTlqSjhpIV73-25" value="Agenda" style="rhombus;whiteSpace=wrap;html=1;fontSize=10;" parent="1" vertex="1">
                    <mxGeometry x="670" y="40" width="80" height="40" as="geometry"/>
                </mxCell>
                <mxCell id="nSq_64oVjTlqSjhpIV73-26" style="edgeStyle=orthogonalEdgeStyle;rounded=0;html=1;endArrow=none;endFill=0;" parent="1" source="nSq_64oVjTlqSjhpIV73-27" edge="1">
                    <mxGeometry relative="1" as="geometry">
                        <mxPoint x="660" y="160" as="targetPoint"/>
                        <Array as="points">
                            <mxPoint x="650" y="160"/>
                        </Array>
                    </mxGeometry>
                </mxCell>
                <mxCell id="nSq_64oVjTlqSjhpIV73-27" value="Conduz" style="rhombus;whiteSpace=wrap;html=1;fontSize=10;" parent="1" vertex="1">
                    <mxGeometry x="610" y="80" width="80" height="40" as="geometry"/>
                </mxCell>
                <mxCell id="nSq_64oVjTlqSjhpIV73-28" style="edgeStyle=elbowEdgeStyle;rounded=0;html=1;exitX=0.5;exitY=1;exitDx=0;exitDy=0;entryX=0;entryY=0.5;entryDx=0;entryDy=0;endArrow=none;endFill=0;" parent="1" source="nSq_64oVjTlqSjhpIV73-30" target="nSq_64oVjTlqSjhpIV73-10" edge="1">
                    <mxGeometry relative="1" as="geometry">
                        <Array as="points">
                            <mxPoint x="80" y="430"/>
                        </Array>
                    </mxGeometry>
                </mxCell>
                <mxCell id="nSq_64oVjTlqSjhpIV73-29" style="edgeStyle=elbowEdgeStyle;rounded=0;html=1;entryX=0;entryY=0.5;entryDx=0;entryDy=0;endArrow=none;endFill=0;" parent="1" source="nSq_64oVjTlqSjhpIV73-30" target="nSq_64oVjTlqSjhpIV73-49" edge="1">
                    <mxGeometry relative="1" as="geometry">
                        <Array as="points">
                            <mxPoint x="80" y="270"/>
                        </Array>
                    </mxGeometry>
                </mxCell>
                <mxCell id="nSq_64oVjTlqSjhpIV73-30" value="Confirma" style="rhombus;whiteSpace=wrap;html=1;fontSize=10;" parent="1" vertex="1">
                    <mxGeometry x="40" y="320" width="80" height="40" as="geometry"/>
                </mxCell>
                <mxCell id="nSq_64oVjTlqSjhpIV73-31" value="Pagamento" style="rounded=0;whiteSpace=wrap;html=1;fontSize=10;" parent="1" vertex="1">
                    <mxGeometry x="480" y="400" width="80" height="40" as="geometry"/>
                </mxCell>
                <mxCell id="nSq_64oVjTlqSjhpIV73-32" value="(0, n)" style="text;html=1;strokeColor=none;fillColor=none;align=center;verticalAlign=middle;whiteSpace=wrap;rounded=0;fontSize=10;" parent="1" vertex="1">
                    <mxGeometry x="400" y="200" width="40" height="20" as="geometry"/>
                </mxCell>
                <mxCell id="nSq_64oVjTlqSjhpIV73-33" value="(1, 1)" style="text;html=1;strokeColor=none;fillColor=none;align=center;verticalAlign=middle;whiteSpace=wrap;rounded=0;fontSize=10;" parent="1" vertex="1">
                    <mxGeometry x="440" y="300" width="40" height="20" as="geometry"/>
                </mxCell>
                <mxCell id="nSq_64oVjTlqSjhpIV73-34" value="(1, 1)" style="text;html=1;strokeColor=none;fillColor=none;align=center;verticalAlign=middle;whiteSpace=wrap;rounded=0;fontSize=10;" parent="1" vertex="1">
                    <mxGeometry x="600" y="180" width="40" height="20" as="geometry"/>
                </mxCell>
                <mxCell id="nSq_64oVjTlqSjhpIV73-35" value="(0, n)" style="text;html=1;strokeColor=none;fillColor=none;align=center;verticalAlign=middle;whiteSpace=wrap;rounded=0;fontSize=10;" parent="1" vertex="1">
                    <mxGeometry x="480" y="180" width="40" height="20" as="geometry"/>
                </mxCell>
                <mxCell id="nSq_64oVjTlqSjhpIV73-36" value="(0, n)" style="text;html=1;strokeColor=none;fillColor=none;align=center;verticalAlign=middle;whiteSpace=wrap;rounded=0;fontSize=10;" parent="1" vertex="1">
                    <mxGeometry x="600" y="340" width="40" height="20" as="geometry"/>
                </mxCell>
                <mxCell id="nSq_64oVjTlqSjhpIV73-37" value="(1, 1)" style="text;html=1;strokeColor=none;fillColor=none;align=center;verticalAlign=middle;whiteSpace=wrap;rounded=0;fontSize=10;" parent="1" vertex="1">
                    <mxGeometry x="480" y="340" width="40" height="20" as="geometry"/>
                </mxCell>
                <mxCell id="nSq_64oVjTlqSjhpIV73-38" value="(0, n)" style="text;html=1;strokeColor=none;fillColor=none;align=center;verticalAlign=middle;whiteSpace=wrap;rounded=0;fontSize=10;" parent="1" vertex="1">
                    <mxGeometry x="680" y="300" width="40" height="20" as="geometry"/>
                </mxCell>
                <mxCell id="nSq_64oVjTlqSjhpIV73-39" value="(1, 1)" style="text;html=1;strokeColor=none;fillColor=none;align=center;verticalAlign=middle;whiteSpace=wrap;rounded=0;fontSize=10;" parent="1" vertex="1">
                    <mxGeometry x="680" y="200" width="40" height="20" as="geometry"/>
                </mxCell>
                <mxCell id="nSq_64oVjTlqSjhpIV73-40" value="" style="edgeStyle=none;html=1;endArrow=none;endFill=0;" parent="1" source="nSq_64oVjTlqSjhpIV73-41" target="nSq_64oVjTlqSjhpIV73-31" edge="1">
                    <mxGeometry relative="1" as="geometry"/>
                </mxCell>
                <mxCell id="nSq_64oVjTlqSjhpIV73-41" value="Faz" style="rhombus;whiteSpace=wrap;html=1;fontSize=10;" parent="1" vertex="1">
                    <mxGeometry x="320" y="400" width="80" height="40" as="geometry"/>
                </mxCell>
                <mxCell id="nSq_64oVjTlqSjhpIV73-42" value="" style="edgeStyle=none;html=1;endArrow=none;endFill=0;" parent="1" source="nSq_64oVjTlqSjhpIV73-43" target="nSq_64oVjTlqSjhpIV73-45" edge="1">
                    <mxGeometry relative="1" as="geometry"/>
                </mxCell>
                <mxCell id="nSq_64oVjTlqSjhpIV73-43" value="Assina" style="rhombus;whiteSpace=wrap;html=1;fontSize=10;" parent="1" vertex="1">
                    <mxGeometry x="320" y="480" width="80" height="40" as="geometry"/>
                </mxCell>
                <mxCell id="nSq_64oVjTlqSjhpIV73-44" value="" style="edgeStyle=none;rounded=0;html=1;endArrow=none;endFill=0;" parent="1" source="nSq_64oVjTlqSjhpIV73-45" target="nSq_64oVjTlqSjhpIV73-54" edge="1">
                    <mxGeometry relative="1" as="geometry"/>
                </mxCell>
                <mxCell id="nSq_64oVjTlqSjhpIV73-45" value="Contrato" style="rounded=0;whiteSpace=wrap;html=1;fontSize=10;" parent="1" vertex="1">
                    <mxGeometry x="480" y="480" width="80" height="40" as="geometry"/>
                </mxCell>
                <mxCell id="nSq_64oVjTlqSjhpIV73-46" style="edgeStyle=elbowEdgeStyle;rounded=0;html=1;entryX=0;entryY=0.5;entryDx=0;entryDy=0;endArrow=none;endFill=0;" parent="1" source="nSq_64oVjTlqSjhpIV73-49" target="nSq_64oVjTlqSjhpIV73-25" edge="1">
                    <mxGeometry relative="1" as="geometry">
                        <Array as="points">
                            <mxPoint x="280" y="170"/>
                            <mxPoint x="280" y="190"/>
                            <mxPoint x="260" y="190"/>
                            <mxPoint x="280" y="130"/>
                        </Array>
                    </mxGeometry>
                </mxCell>
                <mxCell id="nSq_64oVjTlqSjhpIV73-47" style="edgeStyle=elbowEdgeStyle;rounded=0;html=1;entryX=0;entryY=0.5;entryDx=0;entryDy=0;endArrow=none;endFill=0;" parent="1" source="nSq_64oVjTlqSjhpIV73-49" target="nSq_64oVjTlqSjhpIV73-27" edge="1">
                    <mxGeometry relative="1" as="geometry">
                        <Array as="points">
                            <mxPoint x="300" y="190"/>
                            <mxPoint x="260" y="170"/>
                            <mxPoint x="320" y="150"/>
                        </Array>
                    </mxGeometry>
                </mxCell>
                <mxCell id="nSq_64oVjTlqSjhpIV73-48" style="edgeStyle=orthogonalEdgeStyle;rounded=0;html=1;exitX=0.75;exitY=1;exitDx=0;exitDy=0;entryX=0.5;entryY=0;entryDx=0;entryDy=0;endArrow=none;endFill=0;" parent="1" source="nSq_64oVjTlqSjhpIV73-49" target="nSq_64oVjTlqSjhpIV73-55" edge="1">
                    <mxGeometry relative="1" as="geometry"/>
                </mxCell>
                <mxCell id="nSq_64oVjTlqSjhpIV73-49" value="Agendamento" style="rounded=0;whiteSpace=wrap;html=1;fontSize=10;" parent="1" vertex="1">
                    <mxGeometry x="160" y="160" width="80" height="40" as="geometry"/>
                </mxCell>
                <mxCell id="nSq_64oVjTlqSjhpIV73-50" style="edgeStyle=orthogonalEdgeStyle;rounded=0;html=1;exitX=0.5;exitY=0;exitDx=0;exitDy=0;entryX=0.75;entryY=1;entryDx=0;entryDy=0;endArrow=none;endFill=0;" parent="1" source="nSq_64oVjTlqSjhpIV73-52" target="nSq_64oVjTlqSjhpIV73-17" edge="1">
                    <mxGeometry relative="1" as="geometry">
                        <Array as="points">
                            <mxPoint x="560" y="220"/>
                            <mxPoint x="460" y="220"/>
                        </Array>
                    </mxGeometry>
                </mxCell>
                <mxCell id="nSq_64oVjTlqSjhpIV73-51" style="edgeStyle=orthogonalEdgeStyle;rounded=0;html=1;entryX=0.25;entryY=0;entryDx=0;entryDy=0;endArrow=none;endFill=0;exitX=0.5;exitY=1;exitDx=0;exitDy=0;" parent="1" source="nSq_64oVjTlqSjhpIV73-52" target="nSq_64oVjTlqSjhpIV73-12" edge="1">
                    <mxGeometry relative="1" as="geometry"/>
                </mxCell>
                <mxCell id="nSq_64oVjTlqSjhpIV73-52" value="Avalia" style="rhombus;whiteSpace=wrap;html=1;fontSize=10;" parent="1" vertex="1">
                    <mxGeometry x="520" y="240" width="80" height="40" as="geometry"/>
                </mxCell>
                <mxCell id="nSq_64oVjTlqSjhpIV73-53" value="" style="edgeStyle=none;rounded=0;html=1;endArrow=none;endFill=0;entryX=0.5;entryY=1;entryDx=0;entryDy=0;" parent="1" source="nSq_64oVjTlqSjhpIV73-54" target="nSq_64oVjTlqSjhpIV73-12" edge="1">
                    <mxGeometry relative="1" as="geometry"/>
                </mxCell>
                <mxCell id="nSq_64oVjTlqSjhpIV73-54" value="Possui" style="rhombus;whiteSpace=wrap;html=1;fontSize=10;" parent="1" vertex="1">
                    <mxGeometry x="640" y="480" width="80" height="40" as="geometry"/>
                </mxCell>
                <mxCell id="nSq_64oVjTlqSjhpIV73-55" value="Comparece" style="rhombus;whiteSpace=wrap;html=1;fontSize=10;" parent="1" vertex="1">
                    <mxGeometry x="280" y="240" width="80" height="40" as="geometry"/>
                </mxCell>
                <mxCell id="nSq_64oVjTlqSjhpIV73-56" value="(1, 1)" style="text;html=1;strokeColor=none;fillColor=none;align=center;verticalAlign=middle;whiteSpace=wrap;rounded=0;fontSize=10;" parent="1" vertex="1">
                    <mxGeometry x="360" y="340" width="40" height="20" as="geometry"/>
                </mxCell>
                <mxCell id="nSq_64oVjTlqSjhpIV73-57" value="(2, n)" style="text;html=1;strokeColor=none;fillColor=none;align=center;verticalAlign=middle;whiteSpace=wrap;rounded=0;fontSize=10;" parent="1" vertex="1">
                    <mxGeometry x="240" y="340" width="40" height="20" as="geometry"/>
                </mxCell>
                <mxCell id="nSq_64oVjTlqSjhpIV73-58" value="(1, 1)" style="text;html=1;strokeColor=none;fillColor=none;align=center;verticalAlign=middle;whiteSpace=wrap;rounded=0;fontSize=10;" parent="1" vertex="1">
                    <mxGeometry x="160" y="460" width="40" height="20" as="geometry"/>
                </mxCell>
                <mxCell id="nSq_64oVjTlqSjhpIV73-59" value="(1, n)" style="text;html=1;strokeColor=none;fillColor=none;align=center;verticalAlign=middle;whiteSpace=wrap;rounded=0;fontSize=10;" parent="1" vertex="1">
                    <mxGeometry x="160" y="360" width="40" height="20" as="geometry"/>
                </mxCell>
                <mxCell id="nSq_64oVjTlqSjhpIV73-60" value="(0, n)" style="text;html=1;strokeColor=none;fillColor=none;align=center;verticalAlign=middle;whiteSpace=wrap;rounded=0;fontSize=10;" parent="1" vertex="1">
                    <mxGeometry x="120" y="180" width="40" height="20" as="geometry"/>
                </mxCell>
                <mxCell id="nSq_64oVjTlqSjhpIV73-61" value="(1, 1)" style="text;html=1;strokeColor=none;fillColor=none;align=center;verticalAlign=middle;whiteSpace=wrap;rounded=0;fontSize=10;" parent="1" vertex="1">
                    <mxGeometry x="120" y="480" width="40" height="20" as="geometry"/>
                </mxCell>
                <mxCell id="nSq_64oVjTlqSjhpIV73-62" value="(1, 1)" style="text;html=1;strokeColor=none;fillColor=none;align=center;verticalAlign=middle;whiteSpace=wrap;rounded=0;fontSize=10;" parent="1" vertex="1">
                    <mxGeometry x="240" y="480" width="40" height="20" as="geometry"/>
                </mxCell>
                <mxCell id="nSq_64oVjTlqSjhpIV73-63" value="(0, n)" style="text;html=1;strokeColor=none;fillColor=none;align=center;verticalAlign=middle;whiteSpace=wrap;rounded=0;fontSize=10;" parent="1" vertex="1">
                    <mxGeometry x="440" y="420" width="40" height="20" as="geometry"/>
                </mxCell>
                <mxCell id="nSq_64oVjTlqSjhpIV73-64" value="(0, n)" style="text;html=1;strokeColor=none;fillColor=none;align=center;verticalAlign=middle;whiteSpace=wrap;rounded=0;fontSize=10;" parent="1" vertex="1">
                    <mxGeometry x="440" y="480" width="40" height="20" as="geometry"/>
                </mxCell>
                <mxCell id="nSq_64oVjTlqSjhpIV73-65" value="(1, 1)" style="text;html=1;strokeColor=none;fillColor=none;align=center;verticalAlign=middle;whiteSpace=wrap;rounded=0;fontSize=10;" parent="1" vertex="1">
                    <mxGeometry x="220" y="460" width="40" height="20" as="geometry"/>
                </mxCell>
                <mxCell id="nSq_64oVjTlqSjhpIV73-66" value="(0, 1)" style="text;html=1;strokeColor=none;fillColor=none;align=center;verticalAlign=middle;whiteSpace=wrap;rounded=0;fontSize=10;" parent="1" vertex="1">
                    <mxGeometry x="560" y="480" width="40" height="20" as="geometry"/>
                </mxCell>
                <mxCell id="nSq_64oVjTlqSjhpIV73-67" value="(1, 1)" style="text;html=1;strokeColor=none;fillColor=none;align=center;verticalAlign=middle;whiteSpace=wrap;rounded=0;fontSize=10;" parent="1" vertex="1">
                    <mxGeometry x="640" y="360" width="40" height="20" as="geometry"/>
                </mxCell>
                <mxCell id="nSq_64oVjTlqSjhpIV73-68" value="(0, 1)" style="text;html=1;strokeColor=none;fillColor=none;align=center;verticalAlign=middle;whiteSpace=wrap;rounded=0;fontSize=10;" parent="1" vertex="1">
                    <mxGeometry x="620" y="280" width="40" height="20" as="geometry"/>
                </mxCell>
                <mxCell id="nSq_64oVjTlqSjhpIV73-69" value="(0, 1)" style="text;html=1;strokeColor=none;fillColor=none;align=center;verticalAlign=middle;whiteSpace=wrap;rounded=0;fontSize=10;" parent="1" vertex="1">
                    <mxGeometry x="460" y="220" width="40" height="20" as="geometry"/>
                </mxCell>
                <mxCell id="nSq_64oVjTlqSjhpIV73-70" value="(1, 1)" style="text;html=1;strokeColor=none;fillColor=none;align=center;verticalAlign=middle;whiteSpace=wrap;rounded=0;fontSize=10;" parent="1" vertex="1">
                    <mxGeometry x="710" y="140" width="40" height="20" as="geometry"/>
                </mxCell>
                <mxCell id="nSq_64oVjTlqSjhpIV73-71" value="(1, 1)" style="text;html=1;strokeColor=none;fillColor=none;align=center;verticalAlign=middle;whiteSpace=wrap;rounded=0;fontSize=10;" parent="1" vertex="1">
                    <mxGeometry x="650" y="140" width="40" height="20" as="geometry"/>
                </mxCell>
                <mxCell id="nSq_64oVjTlqSjhpIV73-72" value="(0, n)" style="text;html=1;strokeColor=none;fillColor=none;align=center;verticalAlign=middle;whiteSpace=wrap;rounded=0;fontSize=10;" parent="1" vertex="1">
                    <mxGeometry x="240" y="150" width="40" height="20" as="geometry"/>
                </mxCell>
                <mxCell id="nSq_64oVjTlqSjhpIV73-73" value="(0, n)" style="text;html=1;strokeColor=none;fillColor=none;align=center;verticalAlign=middle;whiteSpace=wrap;rounded=0;fontSize=10;" parent="1" vertex="1">
                    <mxGeometry x="240" y="190" width="40" height="20" as="geometry"/>
                </mxCell>
                <mxCell id="nSq_64oVjTlqSjhpIV73-74" value="(0, n)" style="text;html=1;strokeColor=none;fillColor=none;align=center;verticalAlign=middle;whiteSpace=wrap;rounded=0;fontSize=10;" parent="1" vertex="1">
                    <mxGeometry x="180" y="200" width="40" height="20" as="geometry"/>
                </mxCell>
                <mxCell id="nSq_64oVjTlqSjhpIV73-75" value="(1, 1)" style="text;html=1;strokeColor=none;fillColor=none;align=center;verticalAlign=middle;whiteSpace=wrap;rounded=0;fontSize=10;" parent="1" vertex="1">
                    <mxGeometry x="380" y="300" width="40" height="20" as="geometry"/>
                </mxCell>
            </root>
        </mxGraphModel>
    </diagram>
</mxfile>